<svg viewBox="0 0 24 24" fill="none" xmlns="http://www.w3.org/2000/svg">
    <path d="m9 12 2 2 4.5-4.5M7.334 3.819a3.832 3.832 0 0 0 2.18-.904 3.832 3.832 0 0 1 4.972 0c.613.523 1.376.84 2.18.904a3.832 3.832 0 0 1 3.515 3.515c.064.804.38 1.567.904 2.18a3.832 3.832 0 0 1 0 4.972 3.832 3.832 0 0 0-.904 2.18 3.832 3.832 0 0 1-3.515 3.515 3.832 3.832 0 0 0-2.18.904 3.832 3.832 0 0 1-4.972 0 3.832 3.832 0 0 0-2.18-.904 3.832 3.832 0 0 1-3.515-3.515 3.832 3.832 0 0 0-.904-2.18 3.832 3.832 0 0 1 0-4.972c.523-.613.84-1.376.904-2.18a3.832 3.832 0 0 1 3.515-3.515z" stroke-linecap="round" stroke-linejoin="round"/>
</svg>
