<svg viewBox="0 0 24 24" fill="none" xmlns="http://www.w3.org/2000/svg">
    <path d="m9 12 2 2 4.5-4.5m2.401-4.501c.206.498.601.893 1.1 1.1l1.744.723a2.033 2.033 0 0 1 1.1 2.656l-.722 1.744a2.03 2.03 0 0 0 0 1.556l.722 1.744a2.033 2.033 0 0 1-1.1 2.656L19 17.901A2.033 2.033 0 0 0 17.9 19l-.723 1.745a2.032 2.032 0 0 1-2.656 1.1l-1.744-.722a2.032 2.032 0 0 0-1.555 0l-1.745.723a2.033 2.033 0 0 1-2.654-1.1L6.1 19.001A2.033 2.033 0 0 0 5 17.9l-1.744-.723a2.033 2.033 0 0 1-1.1-2.654l.721-1.744a2.033 2.033 0 0 0 0-1.556l-.722-1.746a2.033 2.033 0 0 1 1.1-2.657L5 6.098c.498-.206.893-.6 1.1-1.098l.723-1.745a2.033 2.033 0 0 1 2.656-1.1l1.744.722a2.033 2.033 0 0 0 1.555-.001l1.746-.72a2.032 2.032 0 0 1 2.655 1.1l.723 1.746v-.003z" stroke-linecap="round" stroke-linejoin="round"/>
</svg>
