<svg viewBox="0 0 24 24" fill="none" xmlns="http://www.w3.org/2000/svg">
<path d="M5 4H19M5 4H4.5M5 4L6 12M19 4H19.5M19 4L18 12M6 12L6.781 18.248C6.84146 18.7318 7.07656 19.1768 7.4421 19.4995C7.80764 19.8221 8.27844 20.0001 8.766 20H15.234C15.7216 20.0001 16.1924 19.8221 16.5579 19.4995C16.9234 19.1768 17.1585 18.7318 17.219 18.248L18 12M6 12L8.072 11.31C8.36094 11.2136 8.66807 11.1845 8.96996 11.2249C9.27186 11.2653 9.56055 11.3741 9.814 11.543L10.891 12.26C11.2195 12.4789 11.6053 12.5956 12 12.5956C12.3947 12.5956 12.7805 12.4789 13.109 12.26L14.186 11.543C14.4394 11.3739 14.728 11.2649 15.0299 11.2244C15.3318 11.1838 15.639 11.2128 15.928 11.309L18 12" stroke-linecap="round" stroke-linejoin="round"/>
</svg>
