<svg width="24" height="24" viewBox="0 0 24 24" fill="none" xmlns="http://www.w3.org/2000/svg">
<path d="M6 20.0871H8.61029C8.95063 20.0871 9.28888 20.1276 9.61881 20.2086L12.3769 20.8789C12.9753 21.0247 13.5988 21.0388 14.2035 20.9214L17.253 20.3281C18.0585 20.1712 18.7996 19.7854 19.3803 19.2205L21.5379 17.1217C22.154 16.5233 22.154 15.5524 21.5379 14.9531C20.9832 14.4134 20.1047 14.3527 19.4771 14.8103L16.9626 16.6448C16.6025 16.9081 16.1643 17.0498 15.7137 17.0498H13.2855L14.8311 17.0497C15.7022 17.0497 16.4079 16.3633 16.4079 15.5159V15.2091C16.4079 14.5055 15.9156 13.8919 15.2141 13.7219L12.8286 13.1417C12.4404 13.0476 12.0428 13 11.6431 13C10.6783 13 8.93189 13.7988 8.93189 13.7988L6 15.0249M2 14.6L2 20.4C2 20.96 2 21.2401 2.10899 21.454C2.20487 21.6421 2.35785 21.7951 2.54601 21.891C2.75992 22 3.03995 22 3.6 22H4.4C4.96005 22 5.24008 22 5.45399 21.891C5.64215 21.7951 5.79513 21.6421 5.89101 21.454C6 21.2401 6 20.96 6 20.4V14.6C6 14.0399 6 13.7599 5.89101 13.546C5.79513 13.3578 5.64215 13.2049 5.45399 13.109C5.24008 13 4.96005 13 4.4 13H3.6C3.03995 13 2.75992 13 2.54601 13.109C2.35785 13.2049 2.20487 13.3578 2.10899 13.546C2 13.7599 2 14.0399 2 14.6ZM17.1914 3.59224C16.5946 2.34338 15.2186 1.68177 13.8804 2.32036C12.5423 2.95895 11.9722 4.47337 12.5325 5.80281C12.8787 6.62445 13.8707 8.21999 14.5781 9.31902C14.8394 9.7251 14.9701 9.92814 15.161 10.0469C15.3247 10.1488 15.5297 10.2037 15.7224 10.1973C15.9471 10.1899 16.1618 10.0794 16.5911 9.85842C17.7532 9.2603 19.4101 8.37454 20.1208 7.83611C21.2707 6.9649 21.5556 5.36356 20.6947 4.14623C19.8337 2.92889 18.3327 2.80911 17.1914 3.59224Z" stroke="black" stroke-width="2" stroke-linecap="round" stroke-linejoin="round"/>
</svg>
