<svg viewBox="0 0 24 24" fill="none" xmlns="http://www.w3.org/2000/svg">
<g clip-path="url(#clip0_1541_12487)">
<path d="M12 0C9.62663 0 7.30655 0.703788 5.33316 2.02236C3.35977 3.34094 1.8217 5.21509 0.913451 7.4078C0.00519943 9.60051 -0.232441 12.0133 0.230582 14.3411C0.693605 16.6689 1.83649 18.8071 3.51472 20.4853C5.19295 22.1635 7.33115 23.3064 9.65892 23.7694C11.9867 24.2324 14.3995 23.9948 16.5922 23.0866C18.7849 22.1783 20.6591 20.6402 21.9776 18.6668C23.2962 16.6935 24 14.3734 24 12C23.9966 8.81846 22.7312 5.76821 20.4815 3.51852C18.2318 1.26883 15.1815 0.00344108 12 0V0ZM12 22C10.0222 22 8.08879 21.4135 6.4443 20.3147C4.79981 19.2159 3.51809 17.6541 2.76121 15.8268C2.00433 13.9996 1.8063 11.9889 2.19215 10.0491C2.578 8.10929 3.53041 6.32746 4.92894 4.92893C6.32746 3.53041 8.10929 2.578 10.0491 2.19215C11.9889 1.8063 13.9996 2.00433 15.8268 2.7612C17.6541 3.51808 19.2159 4.79981 20.3147 6.4443C21.4135 8.08879 22 10.0222 22 12C21.9971 14.6513 20.9426 17.1931 19.0679 19.0679C17.1931 20.9426 14.6513 21.9971 12 22Z" />
<path d="M12 6.99937C11.0111 6.99937 10.0444 7.29262 9.22215 7.84203C8.39991 8.39143 7.75904 9.17233 7.3806 10.086C7.00217 10.9996 6.90315 12.0049 7.09608 12.9748C7.289 13.9447 7.76521 14.8356 8.46447 15.5349C9.16373 16.2342 10.0546 16.7104 11.0246 16.9033C11.9945 17.0962 12.9998 16.9972 13.9134 16.6188C14.827 16.2403 15.6079 15.5995 16.1574 14.7772C16.7068 13.955 17 12.9883 17 11.9994C16.9984 10.6738 16.4711 9.40293 15.5338 8.46559C14.5964 7.52826 13.3256 7.00096 12 6.99937ZM12 14.9994C11.4067 14.9994 10.8266 14.8234 10.3333 14.4938C9.83994 14.1641 9.45543 13.6956 9.22836 13.1474C9.0013 12.5992 8.94189 11.996 9.05765 11.4141C9.1734 10.8322 9.45912 10.2976 9.87868 9.87805C10.2982 9.4585 10.8328 9.17277 11.4147 9.05702C11.9967 8.94126 12.5999 9.00067 13.1481 9.22774C13.6962 9.4548 14.1648 9.83932 14.4944 10.3327C14.8241 10.826 15 11.406 15 11.9994C15 12.795 14.6839 13.5581 14.1213 14.1207C13.5587 14.6833 12.7957 14.9994 12 14.9994Z"/>
<path d="M12 13.0006C12.5523 13.0006 13 12.5529 13 12.0006C13 11.4483 12.5523 11.0006 12 11.0006C11.4477 11.0006 11 11.4483 11 12.0006C11 12.5529 11.4477 13.0006 12 13.0006Z"/>
</g>
</svg>
