<?xml version="1.0" encoding="UTF-8" standalone="no"?>
<svg
   width="349.86914"
   height="349.86719"
   viewBox="0 0 349.86914 349.86719"
   fill="none"
   version="1.1"
   id="svg351"
   xml:space="preserve"
   xmlns="http://www.w3.org/2000/svg"
   xmlns:svg="http://www.w3.org/2000/svg"><defs
     id="defs349" /><path
     style="fill:none;fill-opacity:1;stroke:#ffffff;stroke-width:14.2361;stroke-linejoin:round;stroke-dasharray:none;stroke-opacity:1"
     d="m 3727.7026,184.3768 c -0.5697,-48.06131 -24.3364,-73.89718 -43.5181,-99.345203 l 9.2741,-9.699941 m 108.7353,34.553844 c -48.0613,-0.56969 -73.8972,-24.336386 -99.3452,-43.518081 l -9.7,9.274102 M 3875.3648,184.3768 c 0.5697,-48.06131 24.3364,-73.89718 43.5181,-99.345203 l -9.2741,-9.699941 M 3800.8735,109.8855 c 48.0613,-0.56969 73.8972,-24.336386 99.3452,-43.518081 l 9.7,9.274102 M 3727.7019,183.13435 c -0.5187,48.06189 -24.258,73.92293 -43.4127,99.39127 l 9.2843,9.69011 m 108.6986,-34.66907 c -48.0606,0.62063 -73.8713,24.41469 -99.299,43.62335 l -9.7098,-9.26382 m 182.1008,-108.92834 c 0.6206,48.06068 24.4147,73.87135 43.6233,99.29903 l -9.2638,9.70976 m -108.7718,-34.43858 c 48.0619,0.51875 73.9229,24.25805 99.3912,43.41277 l 9.6901,-9.28438"
     id="path12692-5-0-4-9-5-8-5-3-2-7-6-4-6-2-3-3-0"
     class="UnoptimicedTransforms"
     transform="matrix(1.4048788,0,0,1.4048788,-5165.8329,-83.239406)" /></svg>
