<svg width="420" height="41" viewBox="0 0 420 41" fill="none" xmlns="http://www.w3.org/2000/svg">
<path d="M21.408 40.56C18.4213 40.56 15.64 40.0747 13.064 39.104C10.5253 38.096 8.304 36.696 6.4 34.904C4.53333 33.0747 3.07733 30.928 2.032 28.464C0.986667 26 0.464 23.312 0.464 20.4C0.464 17.488 0.986667 14.8 2.032 12.336C3.07733 9.872 4.552 7.744 6.456 5.952C8.36 4.12267 10.5813 2.72267 13.12 1.752C15.6587 0.743998 18.44 0.239998 21.464 0.239998C24.6747 0.239998 27.6053 0.799998 30.256 1.92C32.9067 3.00267 35.1467 4.62666 36.976 6.792L32.272 11.216C30.8533 9.68533 29.2667 8.54667 27.512 7.8C25.7573 7.016 23.8533 6.624 21.8 6.624C19.7467 6.624 17.8613 6.96 16.144 7.632C14.464 8.304 12.9893 9.256 11.72 10.488C10.488 11.72 9.51733 13.176 8.808 14.856C8.136 16.536 7.8 18.384 7.8 20.4C7.8 22.416 8.136 24.264 8.808 25.944C9.51733 27.624 10.488 29.08 11.72 30.312C12.9893 31.544 14.464 32.496 16.144 33.168C17.8613 33.84 19.7467 34.176 21.8 34.176C23.8533 34.176 25.7573 33.8027 27.512 33.056C29.2667 32.272 30.8533 31.096 32.272 29.528L36.976 34.008C35.1467 36.136 32.9067 37.76 30.256 38.88C27.6053 40 24.656 40.56 21.408 40.56ZM49.5515 40V0.799997H65.6795C69.1515 0.799997 72.1195 1.36 74.5835 2.48C77.0848 3.6 79.0075 5.20533 80.3515 7.296C81.6955 9.38667 82.3675 11.8693 82.3675 14.744C82.3675 17.6187 81.6955 20.1013 80.3515 22.192C79.0075 24.2453 77.0848 25.832 74.5835 26.952C72.1195 28.0347 69.1515 28.576 65.6795 28.576H53.5835L56.8315 25.272V40H49.5515ZM75.1995 40L65.2875 25.776H73.0715L83.0395 40H75.1995ZM56.8315 26.056L53.5835 22.584H65.3435C68.5542 22.584 70.9622 21.8933 72.5675 20.512C74.2102 19.1307 75.0315 17.208 75.0315 14.744C75.0315 12.2427 74.2102 10.32 72.5675 8.976C70.9622 7.632 68.5542 6.96 65.3435 6.96H53.5835L56.8315 3.376V26.056ZM114.48 40.56C111.419 40.56 108.6 40.056 106.024 39.048C103.448 38.04 101.208 36.64 99.3044 34.848C97.4004 33.0187 95.9258 30.8907 94.8804 28.464C93.8351 26 93.3124 23.312 93.3124 20.4C93.3124 17.488 93.8351 14.8187 94.8804 12.392C95.9258 9.928 97.4004 7.8 99.3044 6.008C101.208 4.17867 103.448 2.76 106.024 1.752C108.6 0.743998 111.4 0.239998 114.424 0.239998C117.486 0.239998 120.286 0.743998 122.824 1.752C125.4 2.76 127.64 4.17867 129.544 6.008C131.448 7.8 132.923 9.928 133.968 12.392C135.014 14.8187 135.536 17.488 135.536 20.4C135.536 23.312 135.014 26 133.968 28.464C132.923 30.928 131.448 33.056 129.544 34.848C127.64 36.64 125.4 38.04 122.824 39.048C120.286 40.056 117.504 40.56 114.48 40.56ZM114.424 34.176C116.403 34.176 118.232 33.84 119.912 33.168C121.592 32.496 123.048 31.544 124.28 30.312C125.512 29.0427 126.464 27.5867 127.136 25.944C127.846 24.264 128.2 22.416 128.2 20.4C128.2 18.384 127.846 16.5547 127.136 14.912C126.464 13.232 125.512 11.776 124.28 10.544C123.048 9.27467 121.592 8.304 119.912 7.632C118.232 6.96 116.403 6.624 114.424 6.624C112.446 6.624 110.616 6.96 108.936 7.632C107.294 8.304 105.838 9.27467 104.568 10.544C103.336 11.776 102.366 13.232 101.656 14.912C100.984 16.5547 100.648 18.384 100.648 20.4C100.648 22.3787 100.984 24.208 101.656 25.888C102.366 27.568 103.336 29.0427 104.568 30.312C105.8 31.544 107.256 32.496 108.936 33.168C110.616 33.84 112.446 34.176 114.424 34.176ZM161.005 40.56C157.944 40.56 155.013 40.1307 152.213 39.272C149.413 38.376 147.192 37.2373 145.549 35.856L148.069 30.2C149.637 31.432 151.578 32.4587 153.893 33.28C156.208 34.1013 158.578 34.512 161.005 34.512C163.058 34.512 164.72 34.288 165.989 33.84C167.258 33.392 168.192 32.7947 168.789 32.048C169.386 31.264 169.685 30.3867 169.685 29.416C169.685 28.2213 169.256 27.2693 168.397 26.56C167.538 25.8133 166.418 25.2347 165.037 24.824C163.693 24.376 162.181 23.9653 160.501 23.592C158.858 23.2187 157.197 22.7893 155.517 22.304C153.874 21.7813 152.362 21.128 150.981 20.344C149.637 19.5227 148.536 18.44 147.677 17.096C146.818 15.752 146.389 14.0347 146.389 11.944C146.389 9.816 146.949 7.87467 148.069 6.12C149.226 4.328 150.962 2.90933 153.277 1.864C155.629 0.781331 158.597 0.239998 162.181 0.239998C164.533 0.239998 166.866 0.538665 169.181 1.136C171.496 1.73333 173.512 2.592 175.229 3.712L172.933 9.368C171.178 8.32266 169.368 7.55733 167.501 7.072C165.634 6.54933 163.842 6.288 162.125 6.288C160.109 6.288 158.466 6.53066 157.197 7.016C155.965 7.50133 155.05 8.136 154.453 8.92C153.893 9.704 153.613 10.6 153.613 11.608C153.613 12.8027 154.024 13.7733 154.845 14.52C155.704 15.2293 156.805 15.7893 158.149 16.2C159.53 16.6107 161.061 17.0213 162.741 17.432C164.421 17.8053 166.082 18.2347 167.725 18.72C169.405 19.2053 170.917 19.84 172.261 20.624C173.642 21.408 174.744 22.472 175.565 23.816C176.424 25.16 176.853 26.8587 176.853 28.912C176.853 31.0027 176.274 32.944 175.117 34.736C173.997 36.4907 172.261 37.9093 169.909 38.992C167.557 40.0373 164.589 40.56 161.005 40.56ZM201.824 40.56C198.762 40.56 195.832 40.1307 193.032 39.272C190.232 38.376 188.01 37.2373 186.368 35.856L188.888 30.2C190.456 31.432 192.397 32.4587 194.712 33.28C197.026 34.1013 199.397 34.512 201.824 34.512C203.877 34.512 205.538 34.288 206.808 33.84C208.077 33.392 209.01 32.7947 209.608 32.048C210.205 31.264 210.504 30.3867 210.504 29.416C210.504 28.2213 210.074 27.2693 209.216 26.56C208.357 25.8133 207.237 25.2347 205.856 24.824C204.512 24.376 203 23.9653 201.32 23.592C199.677 23.2187 198.016 22.7893 196.336 22.304C194.693 21.7813 193.181 21.128 191.8 20.344C190.456 19.5227 189.354 18.44 188.496 17.096C187.637 15.752 187.208 14.0347 187.208 11.944C187.208 9.816 187.768 7.87467 188.888 6.12C190.045 4.328 191.781 2.90933 194.096 1.864C196.448 0.781331 199.416 0.239998 203 0.239998C205.352 0.239998 207.685 0.538665 210 1.136C212.314 1.73333 214.33 2.592 216.048 3.712L213.752 9.368C211.997 8.32266 210.186 7.55733 208.32 7.072C206.453 6.54933 204.661 6.288 202.944 6.288C200.928 6.288 199.285 6.53066 198.016 7.016C196.784 7.50133 195.869 8.136 195.272 8.92C194.712 9.704 194.432 10.6 194.432 11.608C194.432 12.8027 194.842 13.7733 195.664 14.52C196.522 15.2293 197.624 15.7893 198.968 16.2C200.349 16.6107 201.88 17.0213 203.56 17.432C205.24 17.8053 206.901 18.2347 208.544 18.72C210.224 19.2053 211.736 19.84 213.08 20.624C214.461 21.408 215.562 22.472 216.384 23.816C217.242 25.16 217.672 26.8587 217.672 28.912C217.672 31.0027 217.093 32.944 215.936 34.736C214.816 36.4907 213.08 37.9093 210.728 38.992C208.376 40.0373 205.408 40.56 201.824 40.56ZM230.491 40V0.799997H236.483L253.619 29.416H250.483L267.339 0.799997H273.331L273.387 40H266.499L266.443 11.608H267.899L253.563 35.52H250.315L235.755 11.608H237.435V40H230.491ZM284.031 40L301.671 0.799997H308.839L326.535 40H318.919L303.743 4.664H306.655L291.535 40H284.031ZM292.151 30.928L294.111 25.216H315.279L317.239 30.928H292.151ZM337.12 40V0.799997H353.248C356.72 0.799997 359.688 1.36 362.152 2.48C364.654 3.6 366.576 5.20533 367.92 7.296C369.264 9.38667 369.936 11.8693 369.936 14.744C369.936 17.6187 369.264 20.1013 367.92 22.192C366.576 24.2453 364.654 25.832 362.152 26.952C359.688 28.0347 356.72 28.576 353.248 28.576H341.152L344.4 25.272V40H337.12ZM362.768 40L352.856 25.776H360.64L370.608 40H362.768ZM344.4 26.056L341.152 22.584H352.912C356.123 22.584 358.531 21.8933 360.136 20.512C361.779 19.1307 362.6 17.208 362.6 14.744C362.6 12.2427 361.779 10.32 360.136 8.976C358.531 7.632 356.123 6.96 352.912 6.96H341.152L344.4 3.376V26.056ZM390.177 30.76L389.785 22.136L410.337 0.799997H418.513L401.433 18.944L397.401 23.368L390.177 30.76ZM383.681 40V0.799997H390.961V40H383.681ZM411.009 40L396.001 22.136L400.817 16.816L419.521 40H411.009Z" fill="white"/>
</svg>
