<svg viewBox="0 0 1707 165" fill="none" xmlns="http://www.w3.org/2000/svg">
<path d="M85.304 164.28C73.144 164.28 61.82 162.304 51.332 158.352C40.996 154.248 31.952 148.548 24.2 141.252C16.6 133.804 10.672 125.064 6.416 115.032C2.16 105 0.0320008 94.056 0.0320008 82.2C0.0320008 70.344 2.16 59.4 6.416 49.368C10.672 39.336 16.676 30.672 24.428 23.376C32.18 15.928 41.224 10.228 51.56 6.27599C61.896 2.17199 73.22 0.119991 85.532 0.119991C98.604 0.119991 110.536 2.39999 121.328 6.96C132.12 11.368 141.24 17.98 148.688 26.796L129.536 44.808C123.76 38.576 117.3 33.94 110.156 30.9C103.012 27.708 95.26 26.112 86.9 26.112C78.54 26.112 70.864 27.48 63.872 30.216C57.032 32.952 51.028 36.828 45.86 41.844C40.844 46.86 36.892 52.788 34.004 59.628C31.268 66.468 29.9 73.992 29.9 82.2C29.9 90.408 31.268 97.932 34.004 104.772C36.892 111.612 40.844 117.54 45.86 122.556C51.028 127.572 57.032 131.448 63.872 134.184C70.864 136.92 78.54 138.288 86.9 138.288C95.26 138.288 103.012 136.768 110.156 133.728C117.3 130.536 123.76 125.748 129.536 119.364L148.688 137.604C141.24 146.268 132.12 152.88 121.328 157.44C110.536 162 98.528 164.28 85.304 164.28ZM199.888 162V2.39999H265.552C279.688 2.39999 291.772 4.67999 301.804 9.24C311.988 13.8 319.816 20.336 325.288 28.848C330.76 37.36 333.496 47.468 333.496 59.172C333.496 70.876 330.76 80.984 325.288 89.496C319.816 97.856 311.988 104.316 301.804 108.876C291.772 113.284 279.688 115.488 265.552 115.488H216.304L229.528 102.036V162H199.888ZM304.312 162L263.956 104.088H295.648L336.232 162H304.312ZM229.528 105.228L216.304 91.092H264.184C277.256 91.092 287.06 88.28 293.596 82.656C300.284 77.032 303.628 69.204 303.628 59.172C303.628 48.988 300.284 41.16 293.596 35.688C287.06 30.216 277.256 27.48 264.184 27.48H216.304L229.528 12.888V105.228ZM464.242 164.28C451.778 164.28 440.302 162.228 429.814 158.124C419.326 154.02 410.206 148.32 402.454 141.024C394.702 133.576 388.698 124.912 384.442 115.032C380.186 105 378.058 94.056 378.058 82.2C378.058 70.344 380.186 59.476 384.442 49.596C388.698 39.564 394.702 30.9 402.454 23.604C410.206 16.156 419.326 10.38 429.814 6.27599C440.302 2.17199 451.702 0.119991 464.014 0.119991C476.478 0.119991 487.878 2.17199 498.214 6.27599C508.702 10.38 517.822 16.156 525.574 23.604C533.326 30.9 539.33 39.564 543.586 49.596C547.842 59.476 549.97 70.344 549.97 82.2C549.97 94.056 547.842 105 543.586 115.032C539.33 125.064 533.326 133.728 525.574 141.024C517.822 148.32 508.702 154.02 498.214 158.124C487.878 162.228 476.554 164.28 464.242 164.28ZM464.014 138.288C472.07 138.288 479.518 136.92 486.358 134.184C493.198 131.448 499.126 127.572 504.142 122.556C509.158 117.388 513.034 111.46 515.77 104.772C518.658 97.932 520.102 90.408 520.102 82.2C520.102 73.992 518.658 66.544 515.77 59.856C513.034 53.016 509.158 47.088 504.142 42.072C499.126 36.904 493.198 32.952 486.358 30.216C479.518 27.48 472.07 26.112 464.014 26.112C455.958 26.112 448.51 27.48 441.67 30.216C434.982 32.952 429.054 36.904 423.886 42.072C418.87 47.088 414.918 53.016 412.03 59.856C409.294 66.544 407.926 73.992 407.926 82.2C407.926 90.256 409.294 97.704 412.03 104.544C414.918 111.384 418.87 117.388 423.886 122.556C428.902 127.572 434.83 131.448 441.67 134.184C448.51 136.92 455.958 138.288 464.014 138.288ZM653.663 164.28C641.199 164.28 629.267 162.532 617.867 159.036C606.467 155.388 597.423 150.752 590.735 145.128L600.995 122.1C607.379 127.116 615.283 131.296 624.707 134.64C634.131 137.984 643.783 139.656 653.663 139.656C662.023 139.656 668.787 138.744 673.955 136.92C679.123 135.096 682.923 132.664 685.355 129.624C687.787 126.432 689.003 122.86 689.003 118.908C689.003 114.044 687.255 110.168 683.759 107.28C680.263 104.24 675.703 101.884 670.079 100.212C664.607 98.388 658.451 96.716 651.611 95.196C644.923 93.676 638.159 91.928 631.319 89.952C624.631 87.824 618.475 85.164 612.851 81.972C607.379 78.628 602.895 74.22 599.399 68.748C595.903 63.276 594.155 56.284 594.155 47.772C594.155 39.108 596.435 31.204 600.995 24.06C605.707 16.764 612.775 10.988 622.199 6.73199C631.775 2.32399 643.859 0.119991 658.451 0.119991C668.027 0.119991 677.527 1.33599 686.951 3.768C696.376 6.19999 704.584 9.69599 711.575 14.256L702.228 37.284C695.084 33.028 687.711 29.912 680.111 27.936C672.511 25.808 665.215 24.744 658.224 24.744C650.015 24.744 643.327 25.732 638.159 27.708C633.143 29.684 629.419 32.268 626.987 35.46C624.707 38.652 623.567 42.3 623.567 46.404C623.567 51.268 625.239 55.22 628.583 58.26C632.079 61.148 636.563 63.428 642.035 65.1C647.659 66.772 653.891 68.444 660.731 70.116C667.571 71.636 674.335 73.384 681.023 75.36C687.863 77.336 694.019 79.92 699.491 83.112C705.115 86.304 709.599 90.636 712.944 96.108C716.44 101.58 718.188 108.496 718.188 116.856C718.188 125.368 715.832 133.272 711.119 140.568C706.56 147.712 699.492 153.488 689.915 157.896C680.339 162.152 668.255 164.28 653.663 164.28ZM819.854 164.28C807.39 164.28 795.458 162.532 784.058 159.036C772.658 155.388 763.614 150.752 756.926 145.128L767.186 122.1C773.57 127.116 781.474 131.296 790.898 134.64C800.322 137.984 809.974 139.656 819.854 139.656C828.214 139.656 834.978 138.744 840.146 136.92C845.314 135.096 849.114 132.664 851.546 129.624C853.978 126.432 855.194 122.86 855.194 118.908C855.194 114.044 853.446 110.168 849.95 107.28C846.454 104.24 841.894 101.884 836.27 100.212C830.798 98.388 824.642 96.716 817.802 95.196C811.114 93.676 804.35 91.928 797.51 89.952C790.822 87.824 784.666 85.164 779.042 81.972C773.57 78.628 769.086 74.22 765.59 68.748C762.094 63.276 760.346 56.284 760.346 47.772C760.346 39.108 762.626 31.204 767.186 24.06C771.898 16.764 778.966 10.988 788.39 6.73199C797.966 2.32399 810.05 0.119991 824.642 0.119991C834.218 0.119991 843.718 1.33599 853.142 3.768C862.566 6.19999 870.774 9.69599 877.766 14.256L868.418 37.284C861.274 33.028 853.902 29.912 846.302 27.936C838.702 25.808 831.406 24.744 824.414 24.744C816.206 24.744 809.518 25.732 804.35 27.708C799.334 29.684 795.61 32.268 793.178 35.46C790.898 38.652 789.758 42.3 789.758 46.404C789.758 51.268 791.43 55.22 794.774 58.26C798.27 61.148 802.754 63.428 808.226 65.1C813.85 66.772 820.082 68.444 826.922 70.116C833.762 71.636 840.526 73.384 847.214 75.36C854.054 77.336 860.21 79.92 865.682 83.112C871.306 86.304 875.79 90.636 879.134 96.108C882.63 101.58 884.378 108.496 884.378 116.856C884.378 125.368 882.022 133.272 877.31 140.568C872.75 147.712 865.682 153.488 856.106 157.896C846.53 162.152 834.446 164.28 819.854 164.28ZM936.569 162V2.39999H960.965L1030.73 118.908H1017.96L1086.59 2.39999H1110.99L1111.22 162H1083.17L1082.94 46.404H1088.87L1030.5 143.76H1017.28L958.001 46.404H964.841V162H936.569ZM1154.55 162L1226.37 2.39999H1255.56L1327.61 162H1296.6L1234.81 18.132H1246.67L1185.11 162H1154.55ZM1187.61 125.064L1195.59 101.808H1281.78L1289.76 125.064H1187.61ZM1370.7 162V2.39999H1436.37C1450.5 2.39999 1462.59 4.67999 1472.62 9.24C1482.8 13.8 1490.63 20.336 1496.1 28.848C1501.58 37.36 1504.31 47.468 1504.31 59.172C1504.31 70.876 1501.58 80.984 1496.1 89.496C1490.63 97.856 1482.8 104.316 1472.62 108.876C1462.59 113.284 1450.5 115.488 1436.37 115.488H1387.12L1400.34 102.036V162H1370.7ZM1475.13 162L1434.77 104.088H1466.46L1507.05 162H1475.13ZM1400.34 105.228L1387.12 91.092H1435C1448.07 91.092 1457.88 88.28 1464.41 82.656C1471.1 77.032 1474.44 69.204 1474.44 59.172C1474.44 48.988 1471.1 41.16 1464.41 35.688C1457.88 30.216 1448.07 27.48 1435 27.48H1387.12L1400.34 12.888V105.228ZM1586.72 124.38L1585.13 89.268L1668.8 2.39999H1702.09L1632.55 76.272L1616.13 94.284L1586.72 124.38ZM1560.27 162V2.39999H1589.91V162H1560.27ZM1671.54 162L1610.43 89.268L1630.04 67.608L1706.19 162H1671.54Z"/>
</svg>
