<svg width="157.37mm" height="176.02mm" version="1.1" viewBox="0 0 157.37 176.02" xmlns="http://www.w3.org/2000/svg" xmlns:xlink="http://www.w3.org/1999/xlink">
 <defs>
  <linearGradient id="linearGradient2175" x1="-629.81" x2="-692.54" y1="2158.3" y2="2041.6" gradientUnits="userSpaceOnUse">
   <stop stop-color="#3da7bf" offset="0"/>
   <stop stop-color="#76a4e9" stop-opacity=".49804" offset=".28893"/>
   <stop stop-color="#673dde" stop-opacity=".24706" offset=".64447"/>
   <stop stop-opacity="0" offset="1"/>
  </linearGradient>
  <clipPath id="clipPath225830-0-8-94-7-2-9-4">
   <path d="m-796.17 1983c.0201.196 0 .5282 0 .5282 38.593-.2906 69.52-.055 116 .09 38.737.1213 70.297-.09 70.297-.09.0201-.1561 0-.5282 0-.5282zm0 7.0947c.018.1941 0 .5283 0 .5283 15.148-1.667 31.403-2.1255 51.364-1.5549 19.118.5466 39.437 1.958 58.835 2.7577 20.588.8488 36.742.8907 52.278.2836 14.293-.5586 23.819-1.4864 23.819-1.4864.0243-.1581 0-.5283 0-.5283-74.445 6.0418-128.83-5.9155-186.3 0zm0 7.0909c.018.1939 0 .5322 0 .5322 13.961-2.8998 28.983-3.6426 47.745-2.5872 17.992 1.012 37.476 3.5248 56.951 4.9196 20.673 1.4805 37.829 1.5046 54.861.382 15.746-1.0378 26.738-2.7144 26.738-2.7144.0279-.1611 0-.5322 0-.5322-85.541 11.354-133.36-10.636-186.3 0zm0 7.0947c.0161.1928 0 .5322 0 .5322 12.846-3.8611 26.657-4.7741 44.285-3.2804 16.926 1.4341 35.674 4.8632 55.281 6.7263 20.814 1.9778 38.955 1.9412 57.358.3517 17.082-1.4754 29.372-3.7976 29.372-3.7976.0311-.1625 0-.5322 0-.5322-95.427 15.973-137.63-14.317-186.3 0zm0 7.0948c.014.1919 0 .5322 0 .5322 11.834-4.5871 24.495-5.5779 41.068-3.6946 18.505 2.1027 35.298 6.1057 53.803 8.2084 20.987 2.3578 40.068 2.2296 59.707.2241 18.289-1.8678 31.717-4.7379 31.717-4.7379.0339-.1638 0-.5322 0-.5322-104.13 19.923-141.53-17.092-186.3 0zm0 7.0948c.014.19 0 .5283 0 .5283 10.955-5.1106 22.558-6.1066 38.17-3.8843 15.03 2.1394 32.557 6.9108 52.499 9.3939 21.169 2.6361 41.124 2.3968 61.856.028 19.361-2.2121 33.771-5.5377 33.771-5.5377.0363-.1636 0-.5283 0-.5283-111.66 23.234-144.93-19.09-186.3 0zm0 7.0947c.0119.1896 0 .5283 0 .5283 10.231-5.4623 20.893-6.4093 35.648-3.8994 14.223 2.4195 31.245 7.6476 51.352 10.311 21.343 2.8274 42.085 2.467 63.763-.2111 20.291-2.5066 35.532-6.2009 35.532-6.2009.0383-.1644 0-.5283 0-.5283-118.07 25.936-147.74-20.427-186.3 0zm0 7.0948c.0119.1893 0 .5283 0 .5283 9.6811-5.6694 19.542-6.53 33.554-3.7846 13.524 2.6497 30.101 8.2102 50.351 10.985 21.492 2.9452 42.916 2.4623 65.389-.4701 21.074-2.7499 37.001-6.7305 37.001-6.7305.0399-.1652 0-.5283 0-.5283-123.38 28.057-149.91-21.212-186.3 0zm0 7.0909c.0119.1905 0 .5322 0 .5322 9.317-5.7567 18.533-6.5083 31.928-3.5793 12.94 2.8297 29.128 8.6108 49.486 11.439 21.604 3.0012 43.593 2.402 66.704-.7294 21.706-2.941 38.178-7.1303 38.178-7.1303.0413-.167 0-.5322 0-.5322-127.61 29.626-151.37-21.541-186.3 0zm0 7.0947c.0119.1906 0 .5322 0 .5322 9.1458-5.7457 17.886-6.379 30.793-3.3178 12.478 2.9592 28.327 8.8609 48.752 11.695 21.669 3.0063 44.094 2.3031 67.686-.9719 22.185-3.0797 39.065-7.4049 39.065-7.4049.0423-.1673 0-.5322 0-.5322-130.79 30.674-152.11-21.499-186.3 0zm0 7.0948c.0119.1906 0 .5322 0 .5322 9.1686-5.6559 17.611-6.1727 30.167-3.03 13.244 3.3151 26.34 8.7855 48.144 11.772 21.681 2.9699 44.406 2.1804 68.32-1.1835 22.51-3.1663 39.665-7.5588 39.665-7.5588.0429-.1675 0-.5322 0-.5322-132.96 31.229-152.11-21.163-186.3 0zm0 7.0948c.0119.1895 0 .5282 0 .5282 9.3808-5.504 17.706-5.9151 30.05-2.7399 12.985 3.3401 25.929 8.777 47.662 11.69 21.637 2.9005 44.521 2.046 68.601-1.3528 22.682-3.2016 39.983-7.5976 39.983-7.5976.0433-.1662 0-.5282 0-.5282-134.15 31.32-151.39-20.597-186.3 0zm0 7.0947c.0119.1898 0 .5283 0 .5283 9.7722-5.3041 18.161-5.6265 30.433-2.4668 12.887 3.3181 25.675 8.6481 47.309 11.466 21.536 2.8047 44.438 1.9096 68.528-1.4721 22.703-3.1869 40.025-7.5266 40.025-7.5266.0433-.1661 0-.5283 0-.5283-134.37 30.977-149.99-19.857-186.3 0zm0 7.0948c.0119.19 0 .5283 0 .5283 10.327-5.0681 18.958-5.323 31.297-2.2249 12.945 3.2502 25.586 8.409 47.09 11.113 21.381 2.6882 44.16 1.7785 68.11-1.5358 22.576-3.1241 39.798-7.3521 39.798-7.3521.0431-.1659 0-.5283 0-.5283-133.66 30.228-147.97-18.986-186.3 0zm0 7.0908c.014.1917 0 .5322 0 .5322 11.023-4.8051 20.065-5.0155 32.607-2.0232 13.156 3.1387 25.667 8.0692 47.015 10.645 21.178 2.5556 43.698 1.6578 67.363-1.5414 22.306-3.0154 39.31-7.0807 39.31-7.0807.0425-.1667 0-.5322 0-.5322-132.04 29.104-145.39-18.019-186.3 0zm0 7.0948c.014.192 0 .5322 0 .5322 11.834-4.5219 21.442-4.7106 34.32-1.866 13.52 2.9865 25.918 7.6372 47.094 10.075 20.937 2.4099 43.069 1.5498 66.309-1.4895 21.898-2.8639 38.572-6.7192 38.572-6.7192.0417-.1663 0-.5322 0-.5322-129.56 27.632-142.37-16.978-186.3 0zm0 7.0948c.0161.191 0 .5283 0 .5283 12.727-4.2223 23.039-4.4101 36.378-1.7521 14.037 2.7971 26.337 7.1212 47.343 9.411 20.669 2.253 42.297 1.4548 64.981-1.3836 21.362-2.673 37.594-6.2753 37.594-6.2753.0407-.1645 0-.5283 0-.5283-126.22 25.842-139.01-15.877-186.3 0zm0 7.0947c.0161.1915 0 .5283 0 .5283 13.665-3.907 24.797-4.111 38.714-1.6752 13.369 2.3399 28.513 6.6911 47.78 8.6617 20.388 2.0852 41.41 1.3703 63.415-1.2299 20.704-2.4464 36.387-5.7566 36.387-5.7566.0393-.1637 0-.5283 0-.5283-122.07 23.764-135.46-14.719-186.3 0zm0 7.0948c.018.1918 0 .5283 0 .5283 14.604-3.5742 26.644-3.8067 41.249-1.6244 14.013 2.0939 29.411 6.0317 48.424 7.8334 20.115 1.9061 40.443 1.2915 61.658-1.0377 19.935-2.1887 34.965-5.1713 34.965-5.1713.0377-.163 0-.5283 0-.5283-117.13 21.426-131.89-13.495-186.3 0zm0 7.0909c.018.1935 0 .5322 0 .5322 15.496-3.2191 28.5-3.4854 43.889-1.5834 14.751 1.8232 30.515 5.3109 49.3 6.9308 19.869 1.7135 39.438 1.2115 59.764-.8191 19.068-1.9048 33.343-4.5283 33.343-4.5283.0359-.1635 0-.5322 0-.5322-111.43 18.86-128.46-12.187-186.3 0zm0 7.0947c.0201.1941 0 .5322 0 .5322 16.286-2.8339 30.274-3.1311 46.531-1.5306 15.571 1.533 31.831 4.5347 50.434 5.9568 19.675 1.5041 38.443 1.1203 57.794-.5894 18.114-1.6003 31.536-3.8368 31.536-3.8368.0337-.1626 0-.5322 0-.5322-105 16.09-125.39-10.766-186.3 0zm0 7.0948c.0204.1945 0 .5322 0 .5322 16.917-2.4084 31.864-2.7236 49.06-1.4399 16.46 1.2288 33.361 3.7087 51.857 4.9126 19.561 1.2733 37.511 1.0061 55.817-.3664 17.089-1.2813 29.561-3.1063 29.561-3.1063.0315-.1616 0-.5322 0-.5322-97.859 13.149-122.9-9.1926-186.3 0zm0 7.0948c.0209.1938 0 .5282 0 .5282 17.322-1.9292 33.159-2.2379 51.348-1.2796 18.635.9818 34.965 2.8163 53.6 3.7982 19.557 1.0154 36.703.8547 53.91-.1712 16.009-.9546 27.438-2.3473 27.438-2.3473.0289-.1594 0-.5283 0-.5283-90.046 10.066-121.24-7.4174-186.3 0zm0 7.0947c.0212.1945 0 .5283 0 .5283 17.432-1.3801 34.039-1.6442 53.257-1.0133 18.382.6034 37.085 1.9271 55.7 2.6102 19.697.7228 36.084.6492 52.154-.027 14.889-.6269 25.184-1.5695 25.184-1.5695.0262-.1583 0-.5283 0-.5283-81.587 6.8684-120.66-5.3801-186.3 0zm0 7.0948c.0209.1951 0 .5283 0 .5283 17.172-.7425 34.371-.9083 54.635-.5993 19.381.2956 39.289.9796 58.196 1.3452 20.017.3872 35.727.3705 50.643.038 13.75-.3063 22.821-.784 22.821-.784.0233-.1573 0-.5283 0-.5283-72.509 3.5867-121.46-3.0101-186.3 0zm0 7.0908c.0201.1975 0 .5322 0 .5322 62.141.02 186.3 0 186.3 0 .0201-.1574 0-.5322 0-.5322-60.77.2434-125.53-.2434-186.3 0z" color="#000000" fill="url(#linearGradient225834)" stroke-width="2.0036" style="-inkscape-stroke:none"/>
  </clipPath>
 </defs>
 <g transform="translate(-1.6668 25.839)">
  <rect transform="translate(788.18 -2008.9)" x="-786.51" y="1921.9" width="157.37" height="237.16" ry=".16957" clip-path="url(#clipPath225830-0-8-94-7-2-9-4)" fill="url(#linearGradient2175)" fill-rule="evenodd" style="paint-order:fill markers stroke"/>
 </g>
</svg>
