<svg width="144.65mm" height="160.97mm" version="1.1" viewBox="0 0 144.65 160.97" xmlns="http://www.w3.org/2000/svg" xmlns:xlink="http://www.w3.org/1999/xlink">
 <defs>
  <linearGradient id="linearGradient2177" x1="-807.55" x2="-724.75" y1="1667.9" y2="1764.8" gradientUnits="userSpaceOnUse">
   <stop stop-color="#3da7bf" offset="0"/>
   <stop stop-color="#76a4e9" stop-opacity=".49804" offset=".28893"/>
   <stop stop-color="#673dde" stop-opacity=".056311" offset=".64447"/>
   <stop stop-opacity="0" offset="1"/>
  </linearGradient>
  <clipPath id="clipPath226607-4-8-6-3-7-8-7-4-5">
   <path d="m-662.9 1824.3c-.0227-.1957-.007-.5282-.007-.5282-38.585.8264-69.513 1.0208-115.99 1.5207-38.735.4166-70.289 1.0659-70.289 1.0659-.018.1564.007.5283.007.5283zm-.0985-7.094c-.0206-.1939-.007-.5283-.007-.5283-15.123 1.8772-31.371 2.5614-51.337 2.2679-19.124-.2811-39.461-1.4102-58.867-1.9405-20.598-.5629-36.751-.3805-52.276.4423-14.284.7569-23.796 1.8169-23.796 1.8169-.022.1584.007.5283.007.5283 74.354-7.0748 128.9 4.1262 186.28-2.5866zm-.0985-7.0902c-.0206-.1937-.007-.5321-.007-.5321-13.92 3.0933-28.93 4.0446-47.705 3.2498-18.005-.7621-37.521-3.0042-57.014-4.1284-20.692-1.1933-37.846-.9792-54.861.3798-15.73 1.2563-26.697 3.0853-26.697 3.0853-.0257.1615.007.5322.007.5322 85.375-12.541 133.49 8.7839 186.28-2.5866zm-.0985-7.0941c-.0188-.1925-.007-.5321-.007-.5321-12.791 4.0391-26.588 5.1438-44.235 3.895-16.945-1.199-35.738-4.3674-55.369-5.9581-20.84-1.6887-38.978-1.4001-57.357.4447-17.059 1.7124-29.316 4.205-29.316 4.205-.0288.1629.007.5321.007.5321 95.196-17.296 137.82 12.404 186.28-2.5866zm-.0985-7.0941c-.0167-.1917-.007-.5321-.007-.5321-11.769 4.751-24.415 5.9174-41.013 4.2644-18.532-1.8455-35.379-5.615-53.911-7.4606-21.018-2.0661-40.096-1.6731-59.704.605-18.262 2.1215-31.648 5.1778-31.648 5.1778-.0316.1643.007.5321.007.5321 103.84-21.367 141.75 15.125 186.28-2.5866zm-.0985-7.0941c-.0167-.1897-.007-.5282-.007-.5282-10.883 5.2621-22.471 6.4192-38.112 4.4139-15.058-1.9305-32.65-6.4581-52.624-8.6642-21.204-2.3418-41.154-1.8255-61.851.8309-19.328 2.4806-33.691 6.006-33.691 6.006-.034.1641.007.5283.007.5283 111.33-24.783 145.18 17.075 186.28-2.5867zm-.0985-7.094c-.0145-.1894-.007-.5283-.007-.5283-10.154 5.6038-20.802 6.6988-35.59 4.3941-14.255-2.2218-31.348-7.2131-51.49-9.5974-21.38-2.5309-42.115-1.8825-63.754 1.0963-20.254 2.7881-35.443 6.6936-35.443 6.6936-.036.165.007.5283.007.5283 117.7-27.573 148.01 18.374 186.28-2.5866zm-.0985-7.0941c-.0145-.1892-.007-.5283-.007-.5283-9.6014 5.8033-19.45 6.8007-33.499 4.2501-13.559-2.4616-30.212-7.7915-50.499-10.285-21.531-2.6465-42.946-1.8662-65.376 1.378-21.033 3.0422-36.904 7.2436-36.904 7.2436-.0376.1656.007.5282.007.5282 122.98-29.768 150.19 19.129 186.28-2.5866zm-.0985-7.0902c-.0145-.1903-.007-.5321-.007-.5321-9.2362 5.8854-18.441 6.7649-31.875 4.0221-12.978-2.6497-29.245-8.2055-49.64-10.751-21.643-2.701-43.622-1.7965-66.687 1.6554-21.663 3.2421-38.075 7.6598-38.075 7.6598-.0389.1675.007.5321.007.5321 127.18-31.395 151.65 19.437 186.28-2.5866zm-.0985-7.0941c-.0145-.1903-.007-.5321-.007-.5321-9.0652 5.8721-17.796 6.6267-30.744 3.7451-12.517-2.7857-28.448-8.4668-48.909-11.017-21.709-2.7052-44.122-1.6907-67.666 1.9115-22.14 3.3875-38.958 7.9466-38.958 7.9466-.0399.1679.007.5321.007.5321 130.36-32.487 152.39 19.385 186.28-2.5866zm-.0985-7.094c-.0145-.1905-.007-.5322-.007-.5322-9.0892 5.7826-17.523 6.4166-30.122 3.4485-13.289-3.1309-26.459-8.4189-48.302-11.103-21.72-2.6686-44.432-1.5636-68.297 2.1319-22.464 3.4786-39.556 8.1089-39.556 8.1089-.0406.1681.007.5321.007.5321 132.52-33.072 152.39 19.049 186.28-2.5865zm-.0985-7.0941c-.0146-.1894-.007-.5283-.007-.5283-9.3034 5.6337-17.622 6.1604-30.009 3.157-13.03-3.1595-26.048-8.4162-47.82-11.028-21.675-2.5998-44.546-1.4276-68.576 2.3052-22.636 3.5162-39.873 8.1519-39.873 8.1519-.041.1668.007.5283.007.5283 133.7-33.18 151.66 18.493 186.28-2.5866zm-.0985-7.0941c-.0145-.1896-.007-.5283-.007-.5283-9.6976 5.4393-18.082 5.8782-30.396 2.8892-12.932-3.1389-25.793-8.2908-47.464-10.808-21.573-2.5054-44.46-1.2924-68.501 2.4234-22.657 3.5019-39.916 8.0817-39.916 8.0817-.041.1666.007.5282.007.5282 133.92-32.84 150.25 17.772 186.28-2.5866zm-.0985-7.0941c-.0146-.1899-.007-.5282-.007-.5282-10.255 5.2109-18.882 5.5857-31.263 2.6592-12.989-3.0702-25.7-8.053-47.24-10.458-21.416-2.3911-44.18-1.1652-68.082 2.4813-22.531 3.4372-39.692 7.904-39.692 7.904-.0408.1664.007.5282.007.5282 133.22-32.081 148.21 16.93 186.28-2.5866zm-.0984-7.0902c-.0167-.1914-.007-.5321-.007-.5321-10.955 4.9577-19.993 5.2936-32.576 2.4758-13.199-2.9558-25.776-7.712-47.158-9.9915-21.212-2.2614-43.717-1.0509-67.335 2.4765-22.262 3.3248-39.208 7.6258-39.208 7.6258-.0402.1674.007.5321.007.5321 131.63-30.934 145.63 15.998 186.28-2.5866zm-.0985-7.094c-.0167-.1918-.007-.5322-.007-.5322-11.77 4.6858-21.375 5.0078-34.291 2.3423-13.56-2.7985-26.022-7.2766-47.23-9.4198-20.968-2.1189-43.087-.9517-66.282 2.41-21.857 3.1677-38.475 7.2541-38.475 7.2541-.0393.1669.007.5321.007.5321 129.16-29.428 142.59 15 186.28-2.5865zm-.0985-7.0941c-.0188-.1908-.007-.5283-.007-.5283-12.667 4.3986-22.976 4.7296-36.35 2.257-14.074-2.602-26.434-6.7548-47.469-8.7527-20.698-1.9659-42.313-.8675-64.955 2.2856-21.323 2.9693-37.503 6.7967-37.503 6.7967-.0384.165.007.5283.007.5283 125.85-27.592 139.22 13.946 186.28-2.5866zm-.0985-7.0941c-.0188-.1912-.007-.5283-.007-.5283-13.609 4.0964-24.738 4.455-38.687 2.2126-13.401-2.154-28.603-6.2946-47.895-7.9974-20.415-1.802-41.425-.7952-63.392 2.1102-20.668 2.7337-36.303 6.2613-36.303 6.2613-.037.1642.007.5282.007.5282 121.73-25.457 135.65 12.836 186.28-2.5866zm-.0985-7.0941c-.0206-.1916-.007-.5282-.007-.5282-14.553 3.7766-26.589 4.1762-41.222 2.1969-14.041-1.8991-29.492-5.6227-48.528-7.1603-20.139-1.6266-40.457-.7299-61.638 1.8937-19.903 2.4653-34.89 5.6563-34.89 5.6563-.0354.1635.007.5282.007.5282 116.82-23.05 132.06 11.662 186.28-2.5866zm-.0984-7.0902c-.0206-.1933-.007-.5321-.007-.5321-15.45 3.4339-28.449 3.8807-43.862 2.1925-14.775-1.6182-30.586-4.8866-49.391-6.2456-19.891-1.4375-39.451-.6637-59.747 1.6488-19.04 2.1694-33.277 4.9909-33.277 4.9909-.0336.1639.007.5321.007.5321 111.16-20.405 128.62 10.402 186.28-2.5866zm-.0985-7.094c-.0228-.1938-.007-.5322-.007-.5322-16.246 3.0598-30.227 3.5512-46.505 2.1765-15.591-1.3166-31.89-4.0922-50.512-5.256-19.694-1.2307-38.454-.5864-57.78 1.3918-18.09 1.8517-31.479 4.2743-31.479 4.2743-.0314.1631.007.5322.007.5322 104.76-17.547 125.53 9.0238 186.28-2.5866zm-.0985-7.0941c-.023-.1943-.007-.5322-.007-.5322-16.882 2.643-31.823 3.1658-49.035 2.1209-16.476-1.0001-33.41-3.245-51.92-4.1921-19.577-1.0016-37.521-.4852-55.806 1.1414-17.07 1.5184-29.515 3.5164-29.515 3.5164-.0292.1621.007.5322.007.5322 97.667-14.507 123.02 7.4852 186.28-2.5866zm-.0985-7.0941c-.0238-.1935-.007-.5283-.007-.5283-17.293 2.1697-33.125 2.6982-51.325 1.9925-18.647-.723-35-2.3306-53.647-3.0536-19.57-.7438-36.711-.3451-53.902.9197-15.994 1.1767-27.403 2.728-27.403 2.728-.0266.1597.007.5283.007.5283 89.898-11.315 121.33 5.7334 186.28-2.5866zm-.0985-7.0941c-.0241-.1942-.007-.5282-.007-.5282-17.411 1.622-34.012 2.1166-53.238 1.7526-18.389-.3481-37.108-1.4119-55.731-1.8365-19.705-.4493-36.089-.1482-52.149.7515-14.879.8336-25.16 1.919-25.16 1.919-.0238.1586.007.5282.007.5282 81.484-8.0005 120.72 3.7043 186.28-2.5866zm-.0985-7.0941c-.0238-.1948-.007-.5282-.007-.5282-17.16.9808-34.355 1.3854-54.622 1.3578-19.383-.026-39.299-.434-58.21-.5371-20.02-.1092-35.729.1257-50.638.665-13.744.4973-22.808 1.1009-22.808 1.1009-.0212.1575.007.5282.007.5282 72.452-4.5931 121.49 1.3235 186.28-2.5866zm-.0985-7.0901c-.0228-.1972-.007-.5322-.007-.5322-62.135.8428-186.28 2.5866-186.28 2.5866-.018.1577.007.5322.007.5322 60.761-1.0872 125.52-1.4995 186.28-2.5866z" color="#000000" fill="url(#linearGradient226611)" stroke-width="2.0036" style="-inkscape-stroke:none"/>
  </clipPath>
 </defs>
 <g transform="translate(-111.23 3.2887)">
  <rect transform="translate(918.78 -1669.2)" x="-807.55" y="1665.9" width="157.37" height="237.16" ry=".16957" clip-path="url(#clipPath226607-4-8-6-3-7-8-7-4-5)" fill="url(#linearGradient2177)" fill-rule="evenodd" style="paint-order:fill markers stroke"/>
 </g>
</svg>
