<svg width="379" height="379" viewBox="0 0 379 379" fill="none" xmlns="http://www.w3.org/2000/svg">
<rect width="379" height="379" rx="52" fill="url(#paint0_linear_960_7)"/>
<path d="M138.03 276.734C174.803 258.379 205.159 257.075 237.953 272.442C250.131 278.149 264.171 287.053 275.402 296.192L282.535 301.997L291.682 292.92C296.713 287.927 300.829 283.485 300.829 283.047C300.829 282.609 297.497 278.109 293.424 273.045C278.2 254.116 266.835 231.386 262.772 211.741C259.586 196.34 260.821 173.092 265.616 158.184C271.56 139.704 283.248 118.792 298.506 99.3415L301.4 95.6519L292.007 86.2582L282.613 76.8644L273.736 83.9675C260.281 94.7336 242.024 105.775 230.032 110.4C192.141 125.013 162.301 119.2 111.683 87.3501L93.646 76L84.8224 85.8578L76 95.7159L82.5455 104.025C128.653 162.555 128.649 215.855 82.5379 276.18L77.1653 283.207L80.9996 287.476C83.1077 289.824 87.1541 294.229 89.9893 297.265L95.1447 302.785L109.945 293.077C118.085 287.737 130.726 280.383 138.035 276.734H138.03Z" stroke="white" stroke-width="7" stroke-linecap="square" stroke-linejoin="round"/>
<defs>
<linearGradient id="paint0_linear_960_7" x1="363.5" y1="18" x2="22" y2="366" gradientUnits="userSpaceOnUse">
<stop stop-color="#24173B"/>
<stop offset="1" stop-color="#344F7B"/>
</linearGradient>
</defs>
</svg>
