<?xml version="1.0" encoding="UTF-8" standalone="no"?>
<svg
   width="349.87012"
   height="349.87109"
   viewBox="0 0 349.87012 349.87109"
   fill="none"
   version="1.1"
   id="svg351"
   sodipodi:docname="logo-correction.svg"
   inkscape:version="1.2.2 (b0a84865, 2022-12-01)"
   xml:space="preserve"
   xmlns:inkscape="http://www.inkscape.org/namespaces/inkscape"
   xmlns:sodipodi="http://sodipodi.sourceforge.net/DTD/sodipodi-0.dtd"
   xmlns="http://www.w3.org/2000/svg"
   xmlns:svg="http://www.w3.org/2000/svg"><sodipodi:namedview
     id="namedview353"
     pagecolor="#505050"
     bordercolor="#eeeeee"
     borderopacity="1"
     inkscape:showpageshadow="0"
     inkscape:pageopacity="0"
     inkscape:pagecheckerboard="0"
     inkscape:deskcolor="#505050"
     showgrid="false"
     inkscape:zoom="0.5"
     inkscape:cx="8725"
     inkscape:cy="18283"
     inkscape:window-width="1925"
     inkscape:window-height="1027"
     inkscape:window-x="0"
     inkscape:window-y="25"
     inkscape:window-maximized="0"
     inkscape:current-layer="svg351" /><defs
     id="defs349" /><path
     style="color:#000000;fill:#ffffff;stroke-width:1.40488;stroke-linejoin:round;-inkscape-stroke:none"
     d="m 35.63457,0.01854687 a 10.000998,10.000998 0 0 0 -6.324,2.75400003 l -13.506,12.9130001 v 0 l -0.06,0.06 -0.06,0.06 v 0 l -12.9149997,13.508 a 10.000998,10.000998 0 0 0 -0.758,12.93 C 29.24457,78.372547 60.01757,111.31655 61.09657,174.90855 c -1.002,63.613 -31.746,96.596 -58.9449997,132.761 a 10.000998,10.000998 0 0 0 0.774,12.926 l 12.9259997,13.495 v 0 l 0.06,0.06 0.06,0.06 v 0 l 13.52,12.899 a 10.000998,10.000998 0 0 0 12.932,0.744 c 36.091,-27.265 68.996,-58.062 132.555,-59.222 63.565,1.024 96.537,31.753 132.687,58.942 a 10.000998,10.000998 0 0 0 12.929,-0.774 l 13.492,-12.927 v 0 l 0.06,-0.06 0.06,-0.06 v 0 l 12.899,-13.519 a 10.000998,10.000998 0 0 0 0.747,-12.932 c -27.258,-36.082 -58.044,-68.981 -59.22,-132.508 1.115,-63.515 31.861,-96.443003 59.077,-132.550003 a 10.000998,10.000998 0 0 0 -0.758,-12.93 l -12.912,-13.508 v 0 l -0.06,-0.06 -0.06,-0.06 v 0 l -13.506,-12.9130001 a 10.000998,10.000998 0 0 0 -12.932,-0.757 c -36.121,27.2270001 -69.059,57.9870001 -132.621,59.0790001 -63.562,-1.092 -96.5,-31.852 -132.621,-59.0790001 a 10.000998,10.000998 0 0 0 -6.605,-1.99700003 z m 1.336,23.09800013 c 33.337,25.587 71.653,56.665 137.08,57.954 v 0.07 c 0.278,0 0.534,-0.03 0.81,-0.03 0.276,0 0.532,0.03 0.809,0.03 v -0.07 c 65.427,-1.289 103.745,-32.364 137.08,-57.952 l 7.115,6.8 6.742,7.054 c -25.574,33.32 -56.627,71.615003 -57.946,136.982003 h -0.08 c 0,0.3 0.03,0.578 0.04,0.878 0,0.286 -0.03,0.552 -0.03,0.839 h 0.07 c 1.388,65.364 32.482,103.627 58.091,136.918 l -6.78,7.107 -7.06,6.761 c -33.363,-25.553 -71.713,-56.585 -137.143,-57.803 v -0.07 c -0.271,0 -0.52,0.03 -0.79,0.04 -0.282,0 -0.543,-0.03 -0.826,-0.04 v 0.07 c -65.427,1.357 -103.71,32.471 -137.02,58.094 l -7.106,-6.78 -6.761,-7.058 c 25.565,-33.38 56.619,-71.752 57.808,-137.242 h 0.06 c 0,-0.257 -0.03,-0.495 -0.03,-0.751 0,-0.263 0.03,-0.506 0.03,-0.769 h -0.07 c -1.258,-65.489 -32.353,-103.825003 -57.953,-137.178003 l 6.744,-7.055 z"
     id="path12692-5-0-4-9-5-8-5-3-2-7-6-4-6-2-3-3-0-6"
     inkscape:export-filename="path12692-5-0-4-9-5-8-5-3-2-7-6-4-6-2-3-3-0-1234126.svg"
     inkscape:export-xdpi="35.121704"
     inkscape:export-ydpi="35.121704" /></svg>
