<svg width="99" height="98" viewBox="0 0 99 98" fill="none" xmlns="http://www.w3.org/2000/svg">
<path d="M9.98208 0.00513245C9.31882 0.0440705 8.691 0.317477 8.2107 0.776537L4.42761 4.39351L4.41081 4.41032L4.394 4.42712L0.776459 8.21075C0.317203 8.69114 0.0436979 9.31915 0.00480394 9.98261C-0.03409 10.6461 0.164161 11.3017 0.56414 11.8325C8.19221 21.9523 16.8119 31.1801 17.1141 48.9924C16.8334 66.8106 8.2219 76.0492 0.603355 86.1792C0.204262 86.7103 0.00695773 87.3661 0.0466705 88.0293C0.0863833 88.6925 0.360528 89.32 0.820155 89.7998L4.44078 93.5798L4.45759 93.5966L4.47439 93.6134L8.2614 97.2264C8.7423 97.6852 9.37068 97.9581 10.0343 97.9963C10.6978 98.0345 11.3534 97.8355 11.8837 97.4348C21.9929 89.7978 31.2098 81.1715 49.0129 80.8466C66.8177 81.1334 76.0533 89.7407 86.179 97.3564C86.7103 97.7557 87.3662 97.9531 88.0296 97.9134C88.693 97.8737 89.3207 97.5994 89.8005 97.1396L93.5797 93.5187L93.5965 93.5019L93.6133 93.4851L97.2263 89.6984C97.6853 89.2176 97.9583 88.5892 97.9966 87.9257C98.035 87.2621 97.8361 86.6065 97.4356 86.0761C89.8005 75.9694 81.1772 66.7543 80.8478 48.9602C81.1601 31.1694 89.7722 21.9462 97.3955 11.8325C97.7955 11.3017 97.9937 10.6461 97.9549 9.98261C97.916 9.31915 97.6425 8.69114 97.1832 8.21075L93.5665 4.42712L93.5497 4.41032L93.5329 4.39351L89.7498 0.776537C89.2693 0.317178 88.6412 0.0436337 87.9776 0.00478982C87.314 -0.0340541 86.6583 0.164333 86.1275 0.564498C76.0099 8.19087 66.7838 16.8068 48.9798 17.1127C31.1759 16.8068 21.9498 8.19087 11.8322 0.564498C11.3014 0.164463 10.6456 -0.0338009 9.98208 0.00513245ZM10.3563 6.47496C19.6941 13.642 30.4266 22.347 48.7529 22.7081V22.7277C48.8308 22.7277 48.9025 22.7193 48.9798 22.7193C49.0571 22.7193 49.1288 22.7277 49.2064 22.7277V22.7081C67.5328 22.347 78.2658 13.6428 87.6031 6.47552L89.596 8.38022L91.4845 10.3561C84.3211 19.6891 75.623 30.4156 75.2536 48.7252H75.2312C75.2312 48.8092 75.2396 48.8871 75.2424 48.9711C75.2424 49.0512 75.234 49.1257 75.234 49.2061H75.2536C75.6424 67.5148 84.3519 78.2323 91.5251 87.5573L89.626 89.548L87.6485 91.4417C78.3033 84.2843 67.5614 75.5921 49.2342 75.2509V75.2313C49.1583 75.2313 49.0885 75.2397 49.0129 75.2425C48.9339 75.2425 48.8608 75.2341 48.7815 75.2313V75.2509C30.4552 75.631 19.7319 84.3462 10.4017 91.5232L8.41125 89.6241L6.51747 87.6472C13.6783 78.2973 22.3767 67.5492 22.7097 49.2053H22.7265C22.7265 49.1333 22.7181 49.0666 22.7181 48.9949C22.7181 48.9212 22.7265 48.8532 22.7265 48.7795H22.7069C22.3545 30.4358 13.6447 19.6978 6.47405 10.3555L8.36308 8.37938L10.3563 6.47496Z" fill="white"/>
</svg>
