<svg width="92" height="92" viewBox="0 0 92 92" fill="none" xmlns="http://www.w3.org/2000/svg">
<path d="M18.9391 46.2227C18.7305 28.6195 10.0256 19.1568 3 9.83604L6.39671 6.28329M46.2227 18.9392C28.6195 18.7305 19.1567 10.0256 9.83599 3L6.28324 6.39678M73.0226 46.2227C73.2313 28.6195 81.9361 19.1568 88.9617 9.83604L85.565 6.28329M45.7391 18.9392C63.3422 18.7305 72.805 10.0256 82.1257 3L85.6785 6.39678M18.9389 45.7677C18.7489 63.371 10.0541 72.8431 3.03836 82.1712L6.43883 85.7204M46.2514 73.0223C28.6485 73.2496 19.1949 81.9645 9.8816 89L6.32518 85.607M73.0223 45.7103C73.2496 63.3133 81.9646 72.7668 89 82.0801L85.607 85.6365M45.7678 73.0228C63.3712 73.2128 72.8431 81.9077 82.1713 88.9234L85.7204 85.5228" stroke="white" stroke-width="6" stroke-linejoin="round"/>
</svg>
