<svg width="110" height="110" viewBox="0 0 110 110" fill="none" xmlns="http://www.w3.org/2000/svg">
<path d="M10.296 109.677C9.91581 109.488 7.85976 107.57 5.21034 104.933C0.404616 100.149 0.00270948 99.6258 0 98.1463C0 97.7264 0.104315 97.1289 0.233919 96.8191C0.363071 96.5088 1.71465 94.6252 3.23738 92.6327C8.50914 85.7331 9.80021 83.924 11.6878 80.7876C16.0889 73.4762 18.2037 66.7328 18.849 57.9555C19.4171 50.2285 17.7358 41.317 14.3738 34.2332C12.0134 29.2592 9.73698 25.8415 2.77225 16.8157C1.60943 15.3087 0.509383 13.7846 0.327848 13.4292C-0.097993 12.5937 -0.108831 11.177 0.305269 10.295C0.718917 9.41169 9.60061 0.576525 10.4112 0.241886C11.2624 -0.109913 12.647 -0.0733327 13.4201 0.321369C13.7701 0.499752 15.9047 2.06636 18.1635 3.80278C25.7189 9.60995 28.7874 11.6553 33.2874 13.8835C36.4119 15.4307 38.2484 16.1541 41.2347 17.014C45.6932 18.297 50.0103 18.8913 54.9208 18.8972C62.8573 18.9062 69.7566 17.3179 76.7141 13.879C81.024 11.7487 84.5179 9.41711 91.8019 3.81046C94.2169 1.95211 96.4238 0.333562 96.7065 0.213887C97.3933 -0.0764939 98.8574 -0.061591 99.5903 0.245499C100.512 0.629814 109.128 9.26447 109.62 10.2968C110.12 11.3482 110.127 12.4776 109.638 13.4233C109.437 13.8112 107.915 15.889 106.255 18.0405C101.254 24.5214 99.3143 27.3187 97.1987 31.0972C93.9776 36.8511 92.1378 42.6334 91.2938 49.6545C91.031 51.8412 91.0324 58.0358 91.2938 60.2722C92.2801 68.6246 94.7633 75.3476 99.5767 82.6947C101.344 85.3922 102.271 86.6594 106.435 92.0741C108.136 94.2847 109.633 96.3481 109.763 96.6592C109.894 96.9704 110 97.608 110 98.0768C110 99.6145 109.638 100.086 104.696 104.999C100.561 109.109 100.109 109.511 99.3238 109.767C98.3606 110.081 97.3838 110.019 96.5457 109.59C96.2621 109.444 94.2336 107.947 92.0385 106.264C87.0106 102.408 86.1368 101.767 83.4905 99.9952C75.8055 94.8501 69.52 92.4715 60.506 91.2969C58.2205 90.9993 51.473 91.0503 48.9306 91.3845C43.5306 92.094 38.7682 93.4723 34.191 95.6494C29.2439 98.0027 26.0092 100.176 16.121 107.789C14.8475 108.77 13.5745 109.67 13.2923 109.79C12.5363 110.111 11.0542 110.056 10.2933 109.679L10.296 109.677ZM16.1828 98.3193C21.6849 94.17 25.7329 91.5552 29.8396 89.4977C35.7291 86.5469 41.6366 84.7622 48.4546 83.8739C51.5267 83.4738 58.8897 83.4729 61.7857 83.8739C71.0061 85.146 78.2662 87.8272 86.3251 92.9362C88.891 94.5629 90.7858 95.9041 94.4748 98.705C96.077 99.9216 97.5026 100.961 97.6426 101.014C97.821 101.083 98.3954 100.616 99.5596 99.456C100.474 98.5447 101.221 97.7516 101.221 97.6929C101.221 97.6347 100.484 96.6276 99.5835 95.4548C91.7996 85.3226 88.0059 78.5111 85.7529 70.6216C84.1173 64.8948 83.5795 61.0078 83.5804 54.9234C83.5804 50.467 83.7249 48.7324 84.4 45.0242C86.2479 34.8763 89.9612 27.176 98.4202 15.9518L101.23 12.2234L99.4837 10.477L97.7374 8.73068L94.011 11.5315C88.3102 15.8163 85.3063 17.7858 81.0642 20.0203C66.3657 27.763 48.7012 28.561 33.4644 22.1699C27.8996 19.8361 23.2388 17.0113 16.0781 11.6327C13.9895 10.0638 12.2279 8.7799 12.1638 8.7799C12.0111 8.7799 8.77963 12.0224 8.77963 12.1755C8.77963 12.2396 10.0039 13.9151 11.5004 15.899C17.9156 24.4027 21.3119 30.4027 23.6032 37.2806C25.5509 43.1275 26.4066 48.5052 26.4098 54.9234C26.4143 63.8444 24.6879 71.4494 20.8463 79.4324C18.6146 84.0694 16.0812 88.0648 11.5614 94.0756L8.77376 97.7828L10.4902 99.5048C11.434 100.452 12.2342 101.227 12.2685 101.227C12.3002 101.227 14.0636 99.9193 16.1828 98.3211V98.3193Z" fill="white"/>
</svg>
