<?xml version="1.0" encoding="UTF-8"?>
<svg width="157.58mm" height="176.07mm" version="1.1" viewBox="0 0 157.58 176.07" xmlns="http://www.w3.org/2000/svg" xmlns:xlink="http://www.w3.org/1999/xlink">
 <defs>
  <linearGradient id="linearGradient10141" x1="-629.81" x2="-727.37" y1="2158.3" y2="2040.4" gradientUnits="userSpaceOnUse">
   <stop stop-color="#8486d2" offset="0"/>
   <stop stop-color="#8486d2" stop-opacity=".69709" offset=".28893"/>
   <stop stop-color="#8486d2" stop-opacity=".23689" offset=".64447"/>
   <stop stop-opacity="0" offset="1"/>
  </linearGradient>
  <clipPath id="clipPath225830-0-8-94-7-2-8-5-0-9-1-0">
   <path d="m-796.17 1983c0.0201 0.196 0 0.5282 0 0.5282 9.4148-0.071 18.638 3.5418 27.024 7.6112 8.6067 4.1761 17.035 9.1516 25.815 13.498 8.7762 4.3443 17.913 8.1089 27.879 10.068 10.044 1.9748 20.706 2.0826 32.865-0.6832 19.148-4.3552 39.982-16.208 52.034-22.113 13.184-6.4594 20.679-8.3764 20.679-8.3764 0.0195-0.1612-1e-5 -0.5283-1e-5 -0.5283-60.146 15.684-124.2-0-186.3-0zm0 7.0947c0.018 0.1941 0 0.5283 0 0.5283 15.365-1.6909 29.996 8.3756 49.088 20.194 19.308 11.953 36.609 20.551 58.047 17.888 10.597-1.3161 20.493-5.2258 29.519-9.8282 8.9876-4.5828 17.646-10.143 25.632-15.135 8.0306-5.0199 12.902-7.8617 17.605-10.215 4.1107-2.0572 6.4046-2.8985 6.4046-2.8985 0.0234-0.1652-1e-5 -0.5284-1e-5 -0.5284-17.939 6.9078-36.791 22.034-54.267 30.059-18.046 8.2859-33.172 9.9494-48.645 6.0525-15.234-3.8368-28.512-12.462-42.289-20.964-13.019-8.0338-27.281-16.575-41.096-15.153zm0 7.0909c0.018 0.1939 0 0.5322 0 0.5322 14.027-2.9134 27.802 6.1699 45.443 19.254 17.656 13.096 34.634 25.962 55.581 25.716 10.644-0.1248 20.703-3.6295 30.339-8.7209 9.6473-5.0971 18.845-11.769 27.832-18.368 9.2027-6.7573 14.232-10.391 19.807-13.813 4.66-2.8602 7.2941-4.0618 7.2941-4.0618 0.0267-0.1702 0-0.5323 0-0.5323-9.7411 4.6434-21.326 13.514-30.961 20.44-10.499 7.546-19.683 13.629-29.24 17.956-18.985 8.5939-34.163 7.4804-48.939 0.974-14.103-6.2097-27.338-17.309-39.499-25.876-11.978-8.439-24.903-16.062-37.657-13.5zm0 7.0947c0.0161 0.1928 0 0.5322 0 0.5322 12.846-3.8611 25.624 4.2022 42.002 18.223 16.079 13.766 32.912 30.428 53.366 32.543 10.673 1.1034 20.925-1.8237 31.109-7.1922 10.22-5.3873 20.009-13.025 29.887-21.107 10.391-8.502 15.375-12.716 21.842-17.282 5.1598-3.6426 8.0906-5.1787 8.0906-5.1787 0.0297-0.1736 0-0.5323 0-0.5323-10.489 5.7415-24.067 17.616-34.236 25.692-11.464 9.1053-21.311 15.903-31.326 20.196-19.748 8.4651-35.033 4.5217-49.152-4.1941-13.818-8.5299-25.635-20.796-37.06-29.753-11.071-8.6809-22.756-15.409-34.522-11.948zm0 7.0948c0.014 0.1919 0 0.5322 0 0.5322 11.799-4.5734 23.603 2.5241 38.847 17.101 8.7675 8.3842 16.447 16.548 25.065 23.727 8.3877 6.987 16.969 12.381 26.35 14.408 10.692 2.2919 21.135 0.074 31.802-5.3585 10.723-5.4613 21.074-13.836 31.749-23.209 11.645-10.225 16.244-14.646 23.688-20.45 5.6092-4.3735 8.7961-6.2121 8.7961-6.2121 0.0323-0.1768-1e-5 -0.5323-1e-5 -0.5323-10.953 6.5995-26.705 21.622-37.158 30.463-12.317 10.417-22.746 17.66-33.14 21.732-10.129 3.968-19.006 4.3622-27.205 2.3536-8.123-1.99-15.422-6.3161-22.088-11.469-13.359-10.327-24.403-23.568-34.969-32.573-10.282-8.7622-20.871-14.662-31.736-10.513zm0 7.0948c0.014 0.19 0 0.5283 0 0.5283 10.894-5.0823 21.787 1.142 36.041 15.935 6.8907 7.1514 14.327 16.01 22.532 24.055 8.2361 8.0752 17.16 15.149 27.205 18.309 10.706 3.3677 21.323 1.9272 32.403-3.3804 11.156-5.3441 22.008-14.197 33.382-24.614 13.083-11.982 16.69-15.95 25.322-23.17 6.0066-5.0243 9.4117-7.1273 9.4117-7.1273 0.0345-0.1783 0-0.5284 0-0.5284-11.107 7.1614-29.266 25.402-39.708 34.548-13.045 11.426-23.971 18.856-34.668 22.57-10.416 3.6162-19.435 3.2069-27.61 0.3576-8.096-2.8216-15.306-8.0358-21.762-13.849-12.974-11.682-23.378-25.481-33.215-34.4-9.6058-8.7093-19.26-13.882-29.333-9.2341zm0 7.0947c0.0119 0.1896 0 0.5283 0 0.5283 5.0761-2.7101 10.184-2.642 15.595-0.1527 5.498 2.5291 11.248 7.4964 18.035 14.952 6.4971 7.1373 13.591 16.208 21.542 24.754 7.9536 8.5493 16.768 16.466 26.784 20.458 10.715 4.2702 21.484 3.6041 32.906-1.4329 11.516-5.079 22.797-14.156 34.764-25.337 11.002-10.278 20.341-19.735 26.731-25.339 6.351-5.5703 9.9392-7.8949 9.9392-7.8949 0.0363-0.1805 0-0.5283 0-0.5283-13.986 9.4487-28.604 26.019-41.875 37.799-13.644 12.11-24.978 19.504-35.906 22.784-10.634 3.1922-19.766 2.0559-27.913-1.4685-8.0675-3.4902-15.205-9.3612-21.49-15.613-12.661-12.597-22.544-26.612-31.777-35.356-9.0403-8.5613-17.925-13.139-27.336-8.1527zm0 7.0948c0.0119 0.1893 0 0.5283 0 0.5283 4.8018-2.812 9.5871-2.924 14.661-0.6313 5.1509 2.3274 10.564 7.0865 16.992 14.402 7.068 8.0436 13.656 16.851 20.724 24.895 7.7241 8.7707 16.456 17.229 26.45 21.846 10.72 4.9524 21.619 4.9877 33.309 0.3137 11.803-4.7192 23.431-13.791 35.882-25.441 11.451-10.715 21.222-20.861 27.898-26.885 6.6406-5.9914 10.379-8.4904 10.379-8.4904 0.0377-0.1824 0-0.5283 0-0.5283-14.595 10.154-29.903 27.973-43.65 40.124-14.112 12.474-25.767 19.656-36.857 22.486-10.791 2.754-20.008 1.0236-28.124-2.9829-8.04-3.9689-15.12-10.256-21.268-16.743-12.414-13.097-21.883-27.067-30.633-35.588-8.5838-8.3591-16.864-12.492-25.763-7.3041zm0 7.0909c0.0119 0.1905 0 0.5322 0 0.5322 4.6197-2.8544 9.1649-3.0692 13.976-0.9279 4.8809 2.1724 10.02 6.7354 16.161 13.842 5.9011 6.8301 12.489 15.766 20.073 24.583 7.5452 8.7723 16.215 17.472 26.193 22.485 10.722 5.3863 21.725 5.9929 33.613 1.7209 12.018-4.3184 23.908-13.192 36.73-25.025 11.799-10.889 21.911-21.469 28.817-27.773 6.8741-6.2738 10.733-8.897 10.733-8.897 0.0391-0.185 0-0.5322 0-0.5322-15.086 10.65-30.933 29.249-45.032 41.481-14.45 12.537-26.341 19.388-37.532 21.803-10.891 2.3502-20.169 0.1966-28.254-4.0877-8.015-4.2472-15.048-10.714-21.094-17.254-12.224-13.222-21.377-26.955-29.762-35.242-8.2347-8.1383-16.071-11.983-24.623-6.7085zm0 7.0947c0.0119 0.1906 0 0.5322 0 0.5322 4.5333-2.848 8.9255-3.095 13.551-1.0555 4.6914 2.0686 9.6241 6.4637 15.547 13.325 6.5746 7.6164 13.006 16.307 19.58 23.923 7.414 8.5906 16.036 17.25 26.004 22.425 10.719 5.5643 21.801 6.5732 33.818 2.6971 12.162-3.9225 24.231-12.448 37.309-24.195 12.044-10.817 22.405-21.569 29.484-28.005 7.0508-6.4104 11.002-9.1059 11.002-9.1059 0.04-0.1856 0-0.5322 0-0.5322-15.466 10.927-31.695 29.824-46.025 41.877-14.663 12.334-26.71 18.783-37.945 20.852-10.939 2.0142-20.254-0.3743-28.308-4.7364-7.9922-4.3289-14.986-10.757-20.958-17.191-12.086-13.019-21.008-26.38-29.141-34.444-7.9905-7.9232-15.542-11.634-23.919-6.366zm0 7.0948c0.0119 0.1906 0 0.5322 0 0.5322 4.5434-2.8027 8.8718-3.0199 13.391-1.0334 4.5843 2.015 9.3798 6.2784 15.156 12.878 9.8621 11.27 26.168 35.014 45.113 44.739 10.708 5.4969 21.843 6.7223 33.923 3.2037 12.237-3.5643 24.402-11.633 37.626-23.053 12.186-10.524 22.705-21.189 29.9-27.611 7.1705-6.4006 11.187-9.1159 11.187-9.1159 0.0406-0.1858 0-0.5322 0-0.5322-15.739 10.985-32.191 29.705-46.636 41.356-14.756 11.902-26.882 17.917-38.111 19.728-10.94 1.764-20.269-0.6725-28.289-4.9285-7.9706-4.2294-14.93-10.425-20.856-16.618-11.993-12.534-20.765-25.423-28.755-33.287-7.8492-7.7251-15.27-11.445-23.648-6.2584zm0 7.0948c0.0119 0.1895 0 0.5282 0 0.5282 4.6476-2.7269 9.0016-2.8628 13.497-0.8856 4.5604 2.006 9.2904 6.1733 14.989 12.506 9.8795 10.979 25.714 33.07 44.837 42.394 10.687 5.211 21.847 6.472 33.925 3.2555 12.246-3.2613 24.428-10.799 37.689-21.685 12.231-10.04 22.816-20.375 30.07-26.642 7.2338-6.2503 11.291-8.9344 11.291-8.9344 0.0411-0.184 1e-5 -0.5282 1e-5 -0.5282-15.907 10.83-32.429 28.931-46.88 39.993-14.737 11.281-26.87 16.857-38.043 18.499-10.897 1.6015-20.214-0.7148-28.199-4.7066-7.9478-3.9732-14.877-9.7732-20.779-15.613-11.939-11.813-20.637-24.147-28.593-31.831-7.8082-7.5422-15.251-11.395-23.802-6.3494zm0 7.0947c0.0119 0.1898 0 0.5283 0 0.5283 9.5924-5.2065 17.73-0.3508 28.908 11.549 10.094 10.746 25.396 30.827 44.745 39.445 10.654 4.7452 21.806 5.8843 33.819 2.9127 12.19-3.0154 24.312-9.9729 37.507-20.154 12.18-9.3975 22.746-19.186 30.003-25.17 7.2418-5.971 11.315-8.5751 11.315-8.5751 0.0412-0.183 1e-5 -0.5283 1e-5 -0.5283-15.974 10.474-32.418 27.567-46.771 37.888-14.614 10.508-26.685 15.654-37.758 17.206-10.811 1.5155-20.092-0.5439-28.037-4.1462-7.9212-3.5915-14.821-8.8678-20.721-14.262-11.921-10.9-20.62-22.596-28.644-30.108-7.8647-7.3615-15.478-11.447-24.366-6.5863zm0 7.0948c0.0119 0.19 0 0.5283 0 0.5283 10.135-4.974 18.507 0.2378 29.798 11.56 10.473 10.502 25.25 28.36 44.829 36.017 10.604 4.1469 21.715 5.0443 33.602 2.2704 12.071-2.8167 24.06-9.163 37.094-18.503 12.041-8.6285 22.503-17.69 29.712-23.278 7.1965-5.5795 11.261-8.0588 11.261-8.0588 0.0412-0.1817 1e-5 -0.5282 1e-5 -0.5282-15.94 9.9358-32.169 25.695-46.331 35.159-14.395 9.6198-26.339 14.345-37.269 15.865-10.683 1.4853-19.902-0.2209-27.8-3.3451-7.8881-3.1201-14.762-7.7816-20.676-12.656-11.935-9.837-20.709-20.807-28.904-28.129-8.0154-7.1615-15.944-11.543-25.316-6.9009zm0 7.0908c0.014 0.1917 0 0.5322 0 0.5322 10.819-4.7163 19.591 0.8729 31.134 11.565 10.989 10.179 25.307 25.717 45.086 32.228 10.536 3.4684 21.569 4.0507 33.272 1.4462 11.891-2.6464 23.679-8.3616 36.463-16.761 11.819-7.7655 22.101-15.957 29.21-21.06 7.1-5.0964 11.132-7.4113 11.132-7.4113 0.0407-0.1811 1e-5 -0.5322 1e-5 -0.5322-15.808 9.2399-31.698 23.419-45.58 31.94-14.09 8.6477-25.847 12.959-36.592 14.476-20.715 2.9243-36.547-4.9243-48.131-13.306-11.98-8.6693-20.904-18.814-29.369-25.904-8.2567-6.9156-16.64-11.61-26.624-7.2116zm0 7.0948c0.014 0.192 0 0.5322 0 0.5322 11.62-4.4398 20.947 1.4806 32.879 11.462 11.622 9.7219 25.586 22.932 45.512 28.201 10.449 2.763 21.367 3.0063 32.829 0.5649 11.653-2.4819 23.177-7.5523 35.631-14.946 9.4813-5.6287 23.629-15.42 28.516-18.614 6.9554-4.5451 10.93-6.6625 10.93-6.6625 0.0401-0.179 1e-5 -0.5321 1e-5 -0.5321-15.577 8.4136-31.016 20.846-44.542 28.366-13.707 7.6206-25.22 11.515-35.743 13.031-20.343 2.9317-36.037-3.315-47.722-10.529-12.055-7.4424-21.204-16.66-30.033-23.445-8.5849-6.5969-17.553-11.564-28.255-7.4281zm0 7.0948c0.0161 0.191 0 0.5283 0 0.5283 12.505-4.1486 22.531 1.9796 34.988 11.148 12.36 9.0966 26.096 20.043 46.106 24.07 10.347 2.0825 21.109 2.009 32.28-0.2537 11.361-2.3013 22.565-6.7182 34.617-13.073 9.438-4.9766 22.623-13.107 27.646-16.041 6.7657-3.9509 10.658-5.845 10.658-5.845 0.0394-0.1754 0-0.5282 0-0.5282-15.247 7.4897-30.141 18.091-43.241 24.58-13.257 6.5671-24.476 10.032-34.741 11.524-19.902 2.8943-35.438-1.8347-47.257-7.8682-12.282-6.2701-21.487-14.32-30.893-20.784-8.9964-6.1827-18.668-11.318-30.163-7.4578zm0 7.0947c0.0161 0.1915 0 0.5283 0 0.5283 13.444-3.8437 24.289 2.2902 37.405 10.529 13.243 8.3184 27.033 17.124 46.872 19.975 10.225 1.4694 20.803 1.1414 31.637-0.9101 11.022-2.087 21.856-5.8462 33.444-11.162 9.3044-4.2678 21.533-10.837 26.62-13.436 6.5341-3.3387 10.319-4.9916 10.319-4.9916 0.0382-0.1727 1e-5 -0.5283 1e-5 -0.5283-14.819 6.5024-29.087 15.269-41.703 20.725-12.749 5.5142-23.629 8.5307-33.608 9.9574-19.398 2.7735-34.769-0.6072-46.749-5.4944-12.638-5.1554-21.78-11.914-31.941-17.974-9.4878-5.6592-19.959-10.79-32.295-7.2185zm0 7.0948c0.018 0.1918 0 0.5283 0 0.5283 14.401-3.5245 26.149 2.3449 40.056 9.5415 14.157 7.3254 27.988 14.178 47.812 16.064 10.096 0.9603 20.46 0.466 30.92-1.3324 10.643-1.83 21.066-4.9356 32.139-9.241 9.1088-3.5418 20.356-8.6685 25.455-10.893 6.264-2.7329 9.9145-4.1354 9.9145-4.1354 0.0368-0.1701 1e-5 -0.5282 1e-5 -0.5282-14.291 5.4868-27.868 12.487-39.95 16.935-12.193 4.4884-22.7 7.0382-32.369 8.3453-18.842 2.547-34.051 0.2834-46.224-3.5396-12.978-4.0761-22.228-9.6267-33.168-15.092-5.1413-2.5684-10.554-5.0217-16.118-6.437-5.6171-1.4288-11.691-1.8956-18.466-0.2153zm0 7.0909c0.018 0.1935 0 0.5322 0 0.5322 15.34-3.1867 28.023 2.1088 42.852 8.1694 15.147 6.1903 29.155 11.333 48.935 12.476 20.11 1.1622 40.014-2.1807 60.888-8.8384 8.8673-2.8281 19.102-6.6627 24.173-8.497 5.9583-2.1556 9.4475-3.3069 9.4475-3.3069 0.0352-0.1689 1e-5 -0.5322 1e-5 -0.5322-13.665 4.4786-26.499 9.8465-38.009 13.336-11.6 3.5165-21.707 5.5873-31.052 6.7198-18.248 2.2115-33.319 0.7991-45.716-2.0836-13.338-3.1016-22.802-7.5175-34.566-12.232-5.4593-2.1878-11.286-4.3448-17.232-5.5884-6.0238-1.26-12.51-1.674-19.72-0.1547zm0 7.0947c0.0201 0.1941 0 0.5322 0 0.5322 16.22-2.8223 29.807 1.5966 45.686 6.4605 16.207 4.9644 30.517 8.6754 50.258 9.3211 19.769 0.6466 39.05-2.0196 58.642-6.9269 8.5815-2.1495 17.793-4.8746 22.789-6.3194 5.6201-1.6254 8.9202-2.5332 8.9202-2.5332 0.0332-0.1663 1e-5 -0.5321 1e-5 -0.5321-12.938 3.509-24.991 7.4256-35.9 10.032-10.978 2.6226-20.672 4.2146-29.687 5.1261-17.636 1.7833-32.611 0.9521-45.272-1.1426-13.75-2.2751-23.486-5.6422-36.129-9.4893-5.8035-1.7658-12.058-3.5442-18.39-4.5499-6.4371-1.0224-13.313-1.3227-20.918 0.022zm0 7.0948c0.0204 0.1945 0 0.5322 0 0.5322 16.991-2.4189 31.385 0.8884 48.432 4.539 17.334 3.7122 32.054 6.2864 51.805 6.6654 19.506 0.3743 38.107-1.5618 56.402-4.9503 8.2416-1.5265 16.464-3.3468 21.322-4.4168 5.2536-1.1571 8.3348-1.8358 8.3348-1.8358 0.0312-0.1641 0-0.5322 0-0.5322-15.212 3.275-20.281 4.7458-33.644 7.1128-10.337 1.8311-19.616 2.9636-28.308 3.626-17.03 1.2978-31.974 0.8026-44.951-0.6688-14.261-1.617-24.258-4.0422-37.851-6.9581-12.239-2.6255-26.054-5.3594-41.542-3.1134zm0 7.0948c0.0209 0.1938 0 0.5282 0 0.5282 17.577-1.9576 32.64 0.1378 50.94 2.6128 19.065 2.5783 34.293 4.2213 53.611 4.5126 19.381 0.284 37.239-0.9332 54.262-3.0656 16.14-2.022 27.482-4.0588 27.482-4.0588 0.0287-0.1608 0-0.5283 0-0.5283-12.592 2.0235-20.209 3.315-31.259 4.6404-9.6886 1.1622-18.561 1.8786-26.95 2.2899-16.459 0.807-31.459 0.458-44.823-0.5445-14.961-1.1222-25.06-2.7254-39.731-4.712-13.116-1.7762-27.505-3.502-43.533-1.6747zm0 7.0947c0.0212 0.1945 0 0.5283 0 0.5283 17.853-1.4134 33.486-0.4369 53.05 0.9665 19.837 1.4229 35.524 2.4967 55.726 2.7899 19.467 0.2827 36.501-0.3099 52.32-1.4618 14.939-1.0881 25.199-2.2938 25.199-2.2938 0.0261-0.1589 0-0.5282 0-0.5282-10.716 1.155-19.189 1.979-28.763 2.6472-9.0432 0.6312-17.527 1.0018-25.648 1.1928-15.965 0.3753-31.116 0.068-44.972-0.5842-16.226-0.7641-25.564-1.6531-41.773-2.7987-14.029-0.9916-28.802-1.7968-45.14-0.4576zm0 7.0948c0.0209 0.1951 0 0.5283 0 0.5283 17.599-0.761 33.907-0.5708 54.577-0.04 21.495 0.5525 37.148 1.0946 58.208 1.3534 19.838 0.2438 35.96 0.087 50.687-0.3603 13.76-0.4173 22.823-0.9536 22.823-0.9536 0.0233-0.1574-1e-5 -0.5284-1e-5 -0.5284-18.598 1.0448-34.315 1.4625-50.609 1.543-15.608 0.077-30.983-0.174-45.489-0.533-15.329-0.3794-28.659-0.8641-43.988-1.2435-14.888-0.3597-29.93-0.5223-46.21 0.2335zm0 7.0908c0.0201 0.1975 0 0.5322 0 0.5322 62.141 0.02 186.3 0 186.3 0 0.0201-0.1574 0-0.5322 0-0.5322-59.914 0.2421-126.38-0.2421-186.3 0z" color="#000000" fill="url(#linearGradient225834)" stroke-width="2.0036" style="-inkscape-stroke:none"/>
  </clipPath>
 </defs>
 <g transform="translate(-27.104 -22.068)">
  <path transform="rotate(180 -301.02 1090.6)" x="-786.5097" y="1921.8901" width="157.36917" height="237.16022" ry="0.16956802" d="m-786.34 1921.9c52.364 0.01 157.03 0 157.03 0 0.094 0 0.16957 0.076 0.16957 0.1696-6.3e-4 -5.1388-0.0167 74.144-0.016 79.282-1e-3 4.0199-7e-3 84.271-6e-3 80.251 3e-3 15.392 0.0153 38.206 0.0187 53.598 4e-3 13.789 4e-3 23.704 4e-3 23.704 9.1e-4 0.086-0.0748 0.1613-0.16872 0.1613 3.2685 0-94.88 0.038-98.149 0.041-32.713-0.021-58.882-0.046-58.882-0.046-0.0937-0-0.16933-0.077-0.16933-0.1713-3e-3 -21.807-0.0841-41.506-0.15212-68.915-0.0683-27.53-0.0823-50.062-0.0357-77.392 0.0304-17.854 0.12574-46.464 0.15612-64.318 0.035-16.359 0.0317-26.197 0.0317-26.197 1e-5 -0.094 0.0756-0.1696 0.16957-0.1696z" clip-path="url(#clipPath225830-0-8-94-7-2-8-5-0-9-1-0)" fill="url(#linearGradient10141)" fill-rule="evenodd" style="paint-order:fill markers stroke"/>
 </g>
</svg>
