<svg viewBox="0 0 347 54" fill="none" xmlns="http://www.w3.org/2000/svg">
<path d="M83.2689 52.6807C76.7648 52.6807 68.6547 50.8235 64.3186 45.8979C60.0628 40.8915 57.9751 34.8354 57.9751 27.7295V10.7723C57.9751 9.23812 57.9751 8.10764 58.0554 7.38091C58.216 6.65417 58.4569 5.84669 58.9387 4.87771C59.822 3.10124 62.3112 2.29376 66.4867 2.29376C70.9834 2.29376 73.6332 3.50499 74.4362 6.00819C74.8377 7.05791 74.9983 8.67288 74.9983 10.9338V27.891C74.9983 30.5557 75.7209 32.6551 77.2466 34.1086C78.7723 35.5621 80.7797 36.3696 83.3492 36.3696C85.9188 36.3696 88.0065 35.5621 89.5322 34.0279C91.1381 32.4936 91.9411 30.4749 91.9411 27.891V10.6108C91.9411 9.15737 91.9411 8.02689 92.0214 7.30016C92.182 6.49268 92.5032 5.68519 92.985 4.71621C93.788 3.0205 96.2772 2.21301 100.453 2.21301C104.548 2.21301 106.957 3.10124 107.92 4.79696C108.402 5.76594 108.643 6.65417 108.723 7.38091C108.884 8.10764 108.884 9.15737 108.884 10.6916V27.8102C108.884 35.2391 106.475 41.4567 102.059 45.8979C97.4817 50.339 89.211 52.4385 83.2689 52.6807Z"/>
<path d="M37.6597 27.0028L48.3393 37.9038C50.668 40.2455 51.7922 42.2642 51.7922 43.96C51.7922 45.5749 50.668 47.5129 48.3393 49.8546C46.0107 52.1155 44.0836 53.246 42.4776 53.246C40.8716 53.246 38.9445 52.1155 36.6158 49.7738L26.0165 38.9536L15.2566 49.7738C12.928 52.1155 11.0008 53.246 9.39486 53.246C7.86919 53.246 5.86175 52.1155 3.53311 49.8546C1.20447 47.5129 0 45.4942 0 43.8792C0 42.1835 1.12417 40.1648 3.45281 37.8231L14.1324 26.9221L3.53311 16.1825C1.20447 13.8408 0 11.8221 0 10.2071C0 8.51143 1.12417 6.49272 3.45281 4.15101C5.86175 1.80931 7.7889 0.678833 9.31456 0.678833C10.9205 0.678833 12.8477 1.80931 15.1763 4.15101L26.0165 15.052L36.6158 4.23176C38.9445 1.89006 40.8716 0.759581 42.4776 0.759581C44.0836 0.759581 46.0107 1.89006 48.3393 4.23176C50.668 6.57346 51.7922 8.59217 51.7922 10.2879C51.7922 11.9029 50.668 13.8408 48.3393 16.1825L37.6597 27.0028Z"/>
<path fill-rule="evenodd" clip-rule="evenodd" d="M152.887 6.33117C148.792 2.69749 143.814 1.24402 138.193 1.24402C131.689 1.24402 126.389 3.66647 121.973 8.10763C117.556 12.5488 115.147 18.7664 115.147 26.1953V43.3139C115.147 44.7674 115.228 45.8979 115.308 46.6246C115.388 47.4321 115.629 48.2396 116.111 49.2085C116.994 50.985 119.483 51.7925 123.578 51.7925C127.674 51.7925 130.163 50.985 131.046 49.2893C131.528 48.3203 131.849 47.4321 132.01 46.7053C132.09 45.9786 132.09 44.9289 132.09 43.3947V26.1953C132.09 23.6921 132.893 21.5926 134.499 20.0584C136.025 18.5242 137.952 18.5242 138.273 18.5242C138.594 18.5242 140.441 18.5242 141.886 19.9776C143.332 21.4311 144.135 23.5306 144.135 26.1953V43.1524V43.2332C144.135 44.6866 144.215 45.8171 144.295 46.5438C144.376 47.3513 144.617 48.1588 145.098 49.1278C145.982 50.9043 148.471 51.7117 152.566 51.7117C152.566 51.7117 152.566 51.7117 152.646 51.7117C152.646 51.7117 152.646 51.7117 152.727 51.7117C156.822 51.7117 159.391 50.8235 160.275 49.1278C160.756 48.1588 160.997 47.3513 161.158 46.6246C161.238 45.8979 161.238 44.7674 161.238 43.2332V26.276C161.238 25.7915 161.238 25.3878 161.238 24.9033C161.479 22.9653 162.282 21.3504 163.567 20.0584C165.093 18.5242 167.02 18.5242 167.341 18.5242C167.662 18.5242 169.509 18.5242 170.954 19.9776C172.4 21.4311 173.203 23.5306 173.203 26.1953V43.1524C173.203 45.4134 173.363 47.1091 173.765 48.0781C174.568 50.5005 177.137 51.7925 181.714 51.7925C185.809 51.7925 188.379 50.9043 189.262 49.2085C189.744 48.2396 189.985 47.4321 190.145 46.7053C190.226 45.9786 190.226 44.8481 190.226 43.3139V26.3568C190.226 19.2509 188.138 13.1948 183.882 8.18838C179.546 3.26273 173.845 1.32477 167.341 1.32477C161.64 1.24402 156.902 3.02048 152.887 6.33117Z"/>
<path fill-rule="evenodd" clip-rule="evenodd" d="M233.346 6.33117C229.251 2.69749 224.272 1.24402 218.651 1.24402C212.147 1.24402 206.847 3.66647 202.431 8.10763C198.015 12.5488 195.606 18.7664 195.606 26.1953V43.3139C195.606 44.7674 195.686 45.8979 195.766 46.6246C195.847 47.4321 196.088 48.2396 196.569 49.2085C197.453 50.985 199.942 51.7925 204.037 51.7925C208.132 51.7925 210.621 50.985 211.505 49.2893C211.986 48.3203 212.308 47.4321 212.468 46.7053C212.549 45.9786 212.549 44.9289 212.549 43.3947V26.1953C212.549 23.6921 213.352 21.5926 214.958 20.0584C216.483 18.5242 218.41 18.5242 218.732 18.5242C219.053 18.5242 220.9 18.5242 222.345 19.9776C223.79 21.4311 224.593 23.5306 224.593 26.1145V26.1953V43.3139C224.593 44.7674 224.674 45.8979 224.754 46.6246C224.834 47.4321 225.075 48.2396 225.557 49.2085C226.44 50.985 228.929 51.7925 233.025 51.7925C233.025 51.7925 233.025 51.7925 233.105 51.7925C233.105 51.7925 233.105 51.7925 233.185 51.7925C237.28 51.7925 239.85 50.9043 240.733 49.2085C241.215 48.2396 241.456 47.4321 241.616 46.7053C241.697 45.9786 241.697 44.8481 241.697 43.3139V26.3568C241.697 25.8723 241.697 25.4685 241.697 24.984C241.938 23.0461 242.741 21.4311 244.025 20.1391C245.551 18.6049 247.478 18.6049 247.799 18.6049C248.121 18.6049 249.967 18.6049 251.413 20.0584C252.858 21.5119 253.661 23.6113 253.661 26.276V43.2332C253.661 45.4941 253.822 47.1898 254.223 48.1588C255.026 50.5813 257.596 51.8732 262.173 51.8732C266.268 51.8732 268.837 50.985 269.721 49.2893C270.202 48.3203 270.443 47.5128 270.604 46.7861C270.684 46.0594 270.684 44.9289 270.684 43.3947V26.4375C270.684 19.3317 268.597 13.2755 264.341 8.26913C260.005 3.34348 254.304 1.40552 247.799 1.40552C242.098 1.24402 237.361 3.02048 233.346 6.33117Z"/>
<path fill-rule="evenodd" clip-rule="evenodd" d="M344.077 2.2938C347.69 5.60449 348.011 11.3376 344.719 14.9713L314.447 48.4819C312.76 50.3391 310.432 51.3888 307.943 51.3888C305.453 51.3888 303.044 50.4198 301.358 48.5626L285.138 31.444C281.765 27.891 281.846 22.1579 285.459 18.7665C288.992 15.375 294.693 15.4558 298.066 19.0895L307.702 29.2638L331.47 2.93979C334.762 -0.693886 340.383 -1.01688 344.077 2.2938Z" fill="#3051FC"/>
</svg>
