<svg width="24" height="24" viewBox="0 0 24 24" fill="none" xmlns="http://www.w3.org/2000/svg">
    <path d="m9 11.5 2 2L15.5 9m4.5 3c0 4.909-5.354 8.479-7.302 9.615-.221.13-.332.194-.488.227a1.137 1.137 0 0 1-.42 0c-.156-.033-.267-.098-.488-.227C9.354 20.479 4 16.909 4 12V7.218c0-.8 0-1.2.13-1.543a2 2 0 0 1 .548-.79c.276-.242.65-.383 1.398-.664l5.362-2.01c.208-.078.312-.117.419-.133a1 1 0 0 1 .286 0c.107.016.21.055.419.133l5.362 2.01c.748.281 1.123.422 1.398.665a2 2 0 0 1 .547.789c.131.343.131.743.131 1.543V12z" stroke="#000" stroke-width="2" stroke-linecap="round" stroke-linejoin="round"/>
</svg>
