<svg viewBox="0 0 48 48" fill="none" xmlns="http://www.w3.org/2000/svg">
<path fill-rule="evenodd" clip-rule="evenodd" d="M16.3202 0H31.6799C36.4495 0 40.3201 3.8705 40.3201 8.64006C40.3201 11.9825 38.4193 14.8832 35.6404 16.3199C38.4193 17.7567 40.3201 20.6576 40.3201 23.9999C40.3201 28.7695 36.4495 32.64 31.6799 32.64C28.9668 32.64 26.5447 31.3876 24.9603 29.4298V39.3599C24.9603 44.1295 21.0898 48 16.3202 48C11.5506 48 7.68005 44.1295 7.68005 39.3599C7.68005 36.0175 9.58083 33.1167 12.3598 31.6799C9.58083 30.2432 7.68005 27.3423 7.68005 23.9999C7.68005 20.6576 9.58081 17.7567 12.3597 16.3199C9.58082 14.8832 7.68005 11.9825 7.68005 8.64006C7.68005 3.8705 11.5506 0 16.3202 0ZM9.60005 8.64006C9.60005 4.9309 12.611 1.92 16.3202 1.92H23.0398V15.3599H16.3202L16.2993 15.3599C12.5997 15.3487 9.60005 12.3422 9.60005 8.64006ZM23.0403 23.9086C23.04 23.939 23.0398 23.9694 23.0398 23.9999C23.0398 24.0304 23.04 24.0609 23.0403 24.0913V30.7198H16.3201C12.611 30.72 9.60005 27.7091 9.60005 23.9999C9.60005 20.2977 12.5998 17.2911 16.2995 17.2799L16.3202 17.2799H23.0398L23.0403 23.9086ZM24.9603 24.0804V23.9195C25.0034 20.2565 27.9827 17.2947 31.6524 17.2799H31.6799C31.6868 17.2799 31.6937 17.2799 31.7006 17.2799C35.4003 17.2911 38.4001 20.2977 38.4001 23.9999C38.4001 27.7091 35.3891 30.72 31.6799 30.72C27.9976 30.72 25.0035 27.7526 24.9603 24.0804ZM26.2506 17.2799C25.7765 17.6635 25.3439 18.0961 24.9603 18.5701V17.2799H26.2506ZM31.7008 15.3599C31.6938 15.3599 31.6869 15.3599 31.6799 15.3599C31.6694 15.3599 31.6589 15.3599 31.6484 15.3599H24.9603V1.92H31.6799C35.3891 1.92 38.4001 4.9309 38.4001 8.64006C38.4001 12.3422 35.4004 15.3487 31.7008 15.3599ZM16.3202 32.6399C12.611 32.6399 9.60005 35.6508 9.60005 39.3599C9.60005 43.0691 12.611 46.08 16.3202 46.08C20.0294 46.08 23.0403 43.0691 23.0403 39.3599V32.6399H16.3202Z"/>
</svg>
