<svg viewBox="0 0 512 512" fill="none" xmlns="http://www.w3.org/2000/svg">
<g clip-path="url(#clip0_4669_11)">
<path d="M0 256V0H256H512V256V512H256H0V256ZM106.054 349.316C110.124 347.31 116.869 341.327 132.751 325.635L154.001 304.638L175.751 326.124C202.467 352.517 205.883 354.489 216.477 349.639C223.283 346.523 234.103 336.447 238.103 329.5C241.577 323.466 241.808 318.532 238.889 312.71C237.626 310.191 228.106 299.771 215.179 286.76L193.58 265.02L215.163 243.26C227.909 230.41 237.617 219.776 238.873 217.29C241.817 211.462 241.583 206.548 238.068 200.421C234.492 194.186 221.582 181.944 215.455 178.978C206.219 174.507 201.363 177.543 174.231 204.752L153.963 225.078L134.231 205.389C123.379 194.56 112.153 184.139 109.284 182.231C102.118 177.465 96.9613 176.973 90.1847 180.406C83.0488 184.022 71.6879 194.979 68.5549 201.266C62.8777 212.659 64.7272 216.004 91.7375 243.193L113.399 264.999L92.2274 286.318C74.7599 303.907 70.5859 308.663 68.37 313.503C65.8988 318.901 65.7801 319.729 66.8849 323.859C70.0409 335.659 88.1592 351.734 98.5537 351.956C99.6832 351.979 103.058 350.792 106.054 349.316ZM346.316 346.379C352.369 344.259 354.814 342.072 372.147 323.287C381.141 313.54 397.275 296.12 408 284.577C458.1 230.656 466.699 220.936 469.092 215.52C472.219 208.444 472.504 202.017 470.05 193.937C468.228 187.942 466.97 185.84 462.565 181.435C453.235 172.104 439.223 169.638 427.211 175.213C422.384 177.452 405.804 193.793 387.898 213.957C383.279 219.159 376.125 227.042 372 231.475C367.875 235.908 357.782 246.863 349.57 255.818L334.641 272.099L316.298 253.112C294.423 230.469 291.4 228.5 278.5 228.5C271.769 228.5 269.599 228.943 264.818 231.29C254.206 236.502 247.706 247.108 247.706 259.214C247.706 271.146 249.955 274.243 285 310.569C316.585 343.309 319.854 346.066 329.355 347.971C334.134 348.929 340.829 348.301 346.316 346.379Z"/>
</g>
<defs>
<clipPath id="clip0_4669_11">
<rect width="512" height="512" rx="64"/>
</clipPath>
</defs>
</svg>
