<svg width="24" height="24" viewBox="0 0 24 24" fill="none" xmlns="http://www.w3.org/2000/svg">
    <path d="M16.243 4.757a6 6 0 0 1 0 8.486m-8.485 0a6 6 0 0 1 0-8.486M4.858 16c-3.834-3.91-3.81-10.19.07-14.071m14.143 0c3.882 3.882 3.906 10.16.07 14.071m-7.14 0V9M5 22h14c.931 0 1.397 0 1.765-.152a2 2 0 0 0 1.082-1.083C22 20.398 22 19.932 22 19c0-.932 0-1.398-.152-1.765a2 2 0 0 0-1.082-1.083C20.398 16 19.932 16 19 16H5c-.932 0-1.398 0-1.765.152a2 2 0 0 0-1.083 1.083C2 17.602 2 18.068 2 19c0 .932 0 1.398.152 1.765a2 2 0 0 0 1.083 1.083C3.602 22 4.068 22 5 22z" stroke="#000" stroke-width="2" stroke-linecap="round" stroke-linejoin="round"/>
</svg>
