<svg width="24" height="24" viewBox="0 0 24 24" fill="none" xmlns="http://www.w3.org/2000/svg">
    <path d="M22 8v4M10.25 5.5H6.8c-1.68 0-2.52 0-3.162.327a3 3 0 0 0-1.311 1.311C2 7.78 2 8.62 2 10.3v1.2c0 .932 0 1.398.152 1.765a2 2 0 0 0 1.083 1.083c.367.152.833.152 1.765.152v4.25c0 .232 0 .348.01.446a2 2 0 0 0 1.794 1.794c.098.01.214.01.446.01s.348 0 .446-.01a2 2 0 0 0 1.794-1.794c.01-.098.01-.214.01-.446V14.5h.75c1.766 0 3.927.947 5.594 1.856.973.53 1.46.795 1.778.756a.946.946 0 0 0 .691-.41c.187-.262.187-.784.187-1.828V5.126c0-1.044 0-1.566-.187-1.827a.946.946 0 0 0-.691-.41c-.319-.04-.805.225-1.778.755-1.667.91-3.828 1.856-5.594 1.856z" stroke="#000" stroke-width="2" stroke-linecap="round" stroke-linejoin="round"/>
</svg>
