<svg width="24" height="24" viewBox="0 0 24 24" fill="none" xmlns="http://www.w3.org/2000/svg">
    <path d="m4 14 1.575 6.299c.044.177.066.265.092.343A2 2 0 0 0 7.4 21.993c.08.007.172.007.355.007.228 0 .343 0 .44-.01a2 2 0 0 0 1.797-1.797c.009-.096.009-.21.009-.44V5.5m8.5 8a3.5 3.5 0 1 0 0-7m-8.25-1H6.5a4.5 4.5 0 1 0 0 9h3.75c1.766 0 3.927.947 5.594 1.856.973.53 1.46.795 1.778.756a.946.946 0 0 0 .691-.41c.187-.262.187-.784.187-1.828V5.126c0-1.044 0-1.566-.187-1.827a.946.946 0 0 0-.691-.41c-.319-.04-.805.225-1.778.755-1.667.91-3.828 1.856-5.594 1.856z" stroke="#000" stroke-width="2" stroke-linecap="round" stroke-linejoin="round"/>
</svg>
