<svg width="24" height="24" viewBox="0 0 24 24" fill="none" xmlns="http://www.w3.org/2000/svg">
    <path d="M14.39 18.015a3 3 0 0 1-5.795 1.553M10.891 5.74a2.5 2.5 0 1 0-3.47.93m8.815 2.774c-.357-1.332-1.31-2.446-2.65-3.096-1.339-.651-2.955-.785-4.492-.373-1.537.411-2.869 1.336-3.704 2.569-.834 1.233-1.102 2.674-.745 4.006.59 2.204.476 3.963.103 5.299-.425 1.523-.638 2.284-.58 2.437.065.175.113.223.287.29.152.06.792-.112 2.071-.455l11.866-3.18c1.28-.342 1.919-.513 2.021-.64.117-.146.134-.212.104-.396-.027-.161-.591-.714-1.721-1.82-.991-.971-1.97-2.437-2.56-4.64z" stroke="#000" stroke-width="2" stroke-linecap="round" stroke-linejoin="round"/>
</svg>
