<svg width="24" height="24" viewBox="0 0 24 24" fill="none" xmlns="http://www.w3.org/2000/svg">
    <path d="M9.354 21c.705.622 1.631 1 2.646 1 1.014 0 1.94-.378 2.646-1M15 5h6m-8-2.916A6 6 0 0 0 6 8c0 3.09-.78 5.206-1.65 6.605-.735 1.18-1.102 1.771-1.089 1.936.015.182.054.252.2.36.133.099.731.099 1.928.099H18.61c1.196 0 1.794 0 1.927-.098.147-.11.186-.179.2-.361.014-.165-.353-.755-1.088-1.935-.773-1.243-1.475-3.052-1.622-5.606" stroke="#000" stroke-width="2" stroke-linecap="round" stroke-linejoin="round"/>
</svg>
