<?xml version="1.0" standalone="no"?>
<!DOCTYPE svg PUBLIC "-//W3C//DTD SVG 20010904//EN"
 "http://www.w3.org/TR/2001/REC-SVG-20010904/DTD/svg10.dtd">
<svg version="1.0" xmlns="http://www.w3.org/2000/svg"
 width="1600.000000pt" height="1600.000000pt" viewBox="0 0 1600.000000 1600.000000"
 preserveAspectRatio="xMidYMid meet">
<metadata>
Created by potrace 1.14, written by Peter Selinger 2001-2017
</metadata>
<g transform="translate(0.000000,1600.000000) scale(0.100000,-0.100000)"
fill="#000000" stroke="none">
<path d="M1865 15990 c-27 -4 -73 -10 -102 -14 -28 -3 -57 -8 -65 -11 -7 -2
-24 -6 -38 -9 -98 -18 -280 -73 -380 -115 -598 -254 -1051 -775 -1211 -1391
-12 -47 -23 -92 -24 -100 -1 -8 -5 -26 -9 -40 -3 -14 -8 -43 -12 -65 -3 -22
-8 -53 -11 -70 -11 -48 -13 -12231 -3 -12310 5 -38 12 -86 14 -105 8 -57 26
-142 42 -195 8 -27 16 -59 18 -70 13 -61 66 -196 123 -315 167 -345 407 -620
728 -835 88 -59 275 -158 360 -192 143 -56 352 -114 456 -127 24 -3 60 -9 79
-13 48 -10 12220 -13 12295 -3 33 4 85 11 115 14 30 4 63 9 72 12 9 3 26 7 39
9 46 9 186 47 229 62 112 39 282 113 330 143 8 5 42 25 76 44 164 95 354 253
502 419 50 57 162 206 162 216 0 5 4 11 8 13 39 16 221 407 258 553 18 69 35
140 39 166 3 18 8 35 10 39 2 3 7 29 10 56 4 27 10 76 15 109 12 81 11 12156
-1 12265 -14 132 -29 220 -55 305 -8 28 -16 59 -18 70 -24 116 -152 394 -251
545 -210 320 -494 572 -830 736 -117 57 -336 139 -404 150 -14 3 -44 10 -66
16 -167 44 191 41 -6330 44 -3366 1 -6142 -2 -6170 -6z"/>
</g>
</svg>
