<svg viewBox="0 0 184 29" fill="none" xmlns="http://www.w3.org/2000/svg">
<path d="M0.88 23L8.44 6.2H11.512L19.096 23H15.832L9.328 7.856H10.576L4.096 23H0.88ZM4.36 19.112L5.2 16.664H14.272L15.112 19.112H4.36ZM33.6702 23.24C32.3582 23.24 31.1502 23.024 30.0462 22.592C28.9422 22.16 27.9822 21.56 27.1662 20.792C26.3502 20.008 25.7182 19.096 25.2702 18.056C24.8222 17 24.5982 15.848 24.5982 14.6C24.5982 13.352 24.8222 12.208 25.2702 11.168C25.7182 10.112 26.3502 9.2 27.1662 8.432C27.9822 7.648 28.9422 7.04 30.0462 6.608C31.1502 6.176 32.3502 5.96 33.6462 5.96C34.9582 5.96 36.1582 6.176 37.2462 6.608C38.3502 7.04 39.3102 7.64 40.1262 8.408C40.9422 9.176 41.5742 10.088 42.0222 11.144C42.4702 12.2 42.6942 13.352 42.6942 14.6C42.6942 15.848 42.4702 17 42.0222 18.056C41.5742 19.112 40.9422 20.024 40.1262 20.792C39.3102 21.56 38.3502 22.16 37.2462 22.592C36.1582 23.024 34.9662 23.24 33.6702 23.24ZM39.1422 26.672C38.5502 26.672 37.9742 26.6 37.4142 26.456C36.8702 26.328 36.3262 26.104 35.7822 25.784C35.2542 25.48 34.7022 25.072 34.1262 24.56C33.5502 24.064 32.9182 23.448 32.2302 22.712L35.5422 21.848C35.9902 22.44 36.4142 22.912 36.8142 23.264C37.2302 23.632 37.6302 23.896 38.0142 24.056C38.3982 24.216 38.7982 24.296 39.2142 24.296C40.3182 24.296 41.2782 23.848 42.0942 22.952L43.5342 24.68C42.4142 26.008 40.9502 26.672 39.1422 26.672ZM33.6462 20.504C34.4942 20.504 35.2782 20.36 35.9982 20.072C36.7182 19.784 37.3422 19.376 37.8702 18.848C38.3982 18.304 38.8062 17.672 39.0942 16.952C39.3982 16.232 39.5502 15.448 39.5502 14.6C39.5502 13.736 39.3982 12.952 39.0942 12.248C38.8062 11.528 38.3982 10.904 37.8702 10.376C37.3422 9.832 36.7182 9.416 35.9982 9.128C35.2782 8.84 34.4942 8.696 33.6462 8.696C32.7982 8.696 32.0142 8.84 31.2942 9.128C30.5742 9.416 29.9502 9.832 29.4222 10.376C28.8942 10.904 28.4782 11.528 28.1742 12.248C27.8862 12.952 27.7422 13.736 27.7422 14.6C27.7422 15.448 27.8862 16.232 28.1742 16.952C28.4782 17.672 28.8942 18.304 29.4222 18.848C29.9502 19.376 30.5742 19.784 31.2942 20.072C32.0142 20.36 32.7982 20.504 33.6462 20.504ZM58.0253 23.24C55.7213 23.24 53.9133 22.592 52.6013 21.296C51.3053 20 50.6573 18.128 50.6573 15.68V6.2H53.7773V15.56C53.7773 17.288 54.1453 18.544 54.8813 19.328C55.6333 20.112 56.6893 20.504 58.0493 20.504C59.4093 20.504 60.4573 20.112 61.1933 19.328C61.9293 18.544 62.2973 17.288 62.2973 15.56V6.2H65.3693V15.68C65.3693 18.128 64.7133 20 63.4013 21.296C62.1053 22.592 60.3133 23.24 58.0253 23.24ZM71.8113 23L79.3713 6.2H82.4433L90.0273 23H86.7633L80.2593 7.856H81.5073L75.0273 23H71.8113ZM75.2913 19.112L76.1313 16.664H85.2033L86.0433 19.112H75.2913ZM96.3878 23V6.2H104.332C106.188 6.2 107.82 6.544 109.228 7.232C110.636 7.92 111.732 8.888 112.516 10.136C113.316 11.384 113.716 12.872 113.716 14.6C113.716 16.312 113.316 17.8 112.516 19.064C111.732 20.312 110.636 21.28 109.228 21.968C107.82 22.656 106.188 23 104.332 23H96.3878ZM101.14 19.208H104.14C105.1 19.208 105.932 19.032 106.636 18.68C107.356 18.312 107.916 17.784 108.316 17.096C108.716 16.392 108.916 15.56 108.916 14.6C108.916 13.624 108.716 12.792 108.316 12.104C107.916 11.416 107.356 10.896 106.636 10.544C105.932 10.176 105.1 9.992 104.14 9.992H101.14V19.208ZM128.768 23.336C126.288 23.336 124.352 22.656 122.96 21.296C121.568 19.936 120.872 18.008 120.872 15.512V6.2H125.624V15.368C125.624 16.808 125.904 17.84 126.464 18.464C127.04 19.088 127.824 19.4 128.816 19.4C129.808 19.4 130.584 19.088 131.144 18.464C131.704 17.84 131.984 16.808 131.984 15.368V6.2H136.664V15.512C136.664 18.008 135.968 19.936 134.576 21.296C133.184 22.656 131.248 23.336 128.768 23.336ZM153.059 23.336C151.731 23.336 150.499 23.128 149.363 22.712C148.243 22.28 147.267 21.672 146.435 20.888C145.619 20.104 144.979 19.184 144.515 18.128C144.051 17.056 143.819 15.88 143.819 14.6C143.819 13.32 144.051 12.152 144.515 11.096C144.979 10.024 145.619 9.096 146.435 8.312C147.267 7.528 148.243 6.928 149.363 6.512C150.499 6.08 151.731 5.864 153.059 5.864C154.611 5.864 155.995 6.136 157.211 6.68C158.443 7.224 159.467 8.008 160.283 9.032L157.259 11.768C156.715 11.128 156.115 10.64 155.459 10.304C154.819 9.968 154.099 9.8 153.299 9.8C152.611 9.8 151.979 9.912 151.403 10.136C150.827 10.36 150.331 10.688 149.915 11.12C149.515 11.536 149.195 12.04 148.955 12.632C148.731 13.224 148.619 13.88 148.619 14.6C148.619 15.32 148.731 15.976 148.955 16.568C149.195 17.16 149.515 17.672 149.915 18.104C150.331 18.52 150.827 18.84 151.403 19.064C151.979 19.288 152.611 19.4 153.299 19.4C154.099 19.4 154.819 19.232 155.459 18.896C156.115 18.56 156.715 18.072 157.259 17.432L160.283 20.168C159.467 21.176 158.443 21.96 157.211 22.52C155.995 23.064 154.611 23.336 153.059 23.336ZM171.45 19.28L171.186 13.952L178.41 6.2H183.642L176.442 14L173.802 16.76L171.45 19.28ZM167.202 23V6.2H171.906V23H167.202ZM178.482 23L173.01 16.064L176.106 12.752L184.002 23H178.482Z"/>
</svg>
