<svg width="24" height="24" viewBox="0 0 24 24" fill="none" xmlns="http://www.w3.org/2000/svg">
    <path d="M20 12a8 8 0 0 1-8 8m8-8a8 8 0 0 0-8-8m8 8H4m8 8a8 8 0 0 1-8-8m8 8a12.24 12.24 0 0 0 3.2-8A12.24 12.24 0 0 0 12 4m0 16a12.24 12.24 0 0 1-3.2-8A12.24 12.24 0 0 1 12 4m-8 8a8 8 0 0 1 8-8M6 20a2 2 0 1 1-4 0 2 2 0 0 1 4 0zm16 0a2 2 0 1 1-4 0 2 2 0 0 1 4 0zM6 4a2 2 0 1 1-4 0 2 2 0 0 1 4 0zm16 0a2 2 0 1 1-4 0 2 2 0 0 1 4 0z" stroke="#000" stroke-width="2" stroke-linecap="round" stroke-linejoin="round"/>
</svg>
