<svg width="24" height="24" viewBox="0 0 24 24" fill="none" xmlns="http://www.w3.org/2000/svg">
    <path d="M10.5 13.5 21 3M10.627 13.828l2.628 6.758c.232.596.347.893.514.98a.5.5 0 0 0 .462 0c.167-.086.283-.384.515-.979l6.59-16.888c.21-.537.315-.806.258-.977a.5.5 0 0 0-.316-.316c-.172-.057-.44.048-.978.257L3.413 9.253c-.595.233-.893.349-.98.516a.5.5 0 0 0 0 .461c.087.167.385.283.98.514l6.758 2.629c.121.046.182.07.233.106a.5.5 0 0 1 .116.117c.037.05.06.111.107.232z" stroke="#000" stroke-width="2" stroke-linecap="round" stroke-linejoin="round"/>
</svg>
